<svg width="600" height="600" viewBox="0 0 600 600" fill="none" xmlns="http://www.w3.org/2000/svg">
<g clip-path="url(#clip0_2_2)">
<g filter="url(#filter0_d_2_2)">
<rect width="388" height="20" fill="#A7C4A3"/>
<rect x="-0.5" y="-0.5" width="389" height="21" stroke="#024B04"/>
</g>
<rect x="-0.5" y="19.5" width="601" height="581" fill="#A7C4A3" stroke="#024B04"/>
<path d="M265.21 55.9318V55.25L270.699 52.4545V53.5455L266.489 55.5739L266.523 55.5057V55.6761L266.489 55.608L270.699 57.6364V58.7273L265.21 55.9318ZM273.12 55.9318V55.25L278.609 52.4545V53.5455L274.399 55.5739L274.433 55.5057V55.6761L274.399 55.608L278.609 57.6364V58.7273L273.12 55.9318ZM285.377 53.9205L284.474 54.1761C284.417 54.0256 284.333 53.8793 284.222 53.7372C284.114 53.5923 283.967 53.473 283.779 53.3793C283.592 53.2855 283.352 53.2386 283.059 53.2386C282.658 53.2386 282.325 53.331 282.058 53.5156C281.793 53.6974 281.661 53.929 281.661 54.2102C281.661 54.4602 281.752 54.6577 281.934 54.8026C282.116 54.9474 282.4 55.0682 282.786 55.1648L283.758 55.4034C284.343 55.5455 284.779 55.7628 285.066 56.0554C285.353 56.3452 285.496 56.7187 285.496 57.1761C285.496 57.5511 285.388 57.8864 285.173 58.1818C284.96 58.4773 284.661 58.7102 284.278 58.8807C283.894 59.0511 283.448 59.1364 282.94 59.1364C282.272 59.1364 281.719 58.9915 281.282 58.7017C280.844 58.4119 280.567 57.9886 280.451 57.4318L281.406 57.1932C281.496 57.5455 281.668 57.8097 281.921 57.9858C282.177 58.1619 282.511 58.25 282.923 58.25C283.391 58.25 283.763 58.1506 284.039 57.9517C284.317 57.75 284.457 57.5085 284.457 57.2273C284.457 57 284.377 56.8097 284.218 56.6562C284.059 56.5 283.815 56.3835 283.485 56.3068L282.394 56.0511C281.795 55.9091 281.354 55.6889 281.073 55.3906C280.795 55.0895 280.656 54.7131 280.656 54.2614C280.656 53.892 280.759 53.5653 280.967 53.2812C281.177 52.9972 281.462 52.7741 281.823 52.6122C282.187 52.4503 282.599 52.3693 283.059 52.3693C283.707 52.3693 284.215 52.5114 284.585 52.7955C284.957 53.0795 285.221 53.4545 285.377 53.9205ZM287.658 61.4545C287.488 61.4545 287.336 61.4403 287.202 61.4119C287.069 61.3864 286.976 61.3608 286.925 61.3352L287.181 60.4489C287.425 60.5114 287.641 60.5341 287.828 60.517C288.016 60.5 288.182 60.4162 288.327 60.2656C288.475 60.1179 288.61 59.8778 288.732 59.5455L288.919 59.0341L286.499 52.4545H287.59L289.397 57.6705H289.465L291.272 52.4545H292.363L289.584 59.9545C289.459 60.2926 289.304 60.5724 289.12 60.794C288.935 61.0185 288.721 61.1847 288.476 61.2926C288.235 61.4006 287.962 61.4545 287.658 61.4545ZM298.326 53.9205L297.423 54.1761C297.366 54.0256 297.282 53.8793 297.172 53.7372C297.064 53.5923 296.916 53.473 296.728 53.3793C296.541 53.2855 296.301 53.2386 296.008 53.2386C295.608 53.2386 295.274 53.331 295.007 53.5156C294.743 53.6974 294.61 53.929 294.61 54.2102C294.61 54.4602 294.701 54.6577 294.883 54.8026C295.065 54.9474 295.349 55.0682 295.735 55.1648L296.707 55.4034C297.292 55.5455 297.728 55.7628 298.015 56.0554C298.302 56.3452 298.446 56.7187 298.446 57.1761C298.446 57.5511 298.338 57.8864 298.122 58.1818C297.909 58.4773 297.61 58.7102 297.227 58.8807C296.843 59.0511 296.397 59.1364 295.889 59.1364C295.221 59.1364 294.669 58.9915 294.231 58.7017C293.794 58.4119 293.517 57.9886 293.4 57.4318L294.355 57.1932C294.446 57.5455 294.618 57.8097 294.87 57.9858C295.126 58.1619 295.46 58.25 295.872 58.25C296.341 58.25 296.713 58.1506 296.988 57.9517C297.267 57.75 297.406 57.5085 297.406 57.2273C297.406 57 297.326 56.8097 297.167 56.6562C297.008 56.5 296.764 56.3835 296.434 56.3068L295.343 56.0511C294.744 55.9091 294.304 55.6889 294.022 55.3906C293.744 55.0895 293.605 54.7131 293.605 54.2614C293.605 53.892 293.708 53.5653 293.916 53.2812C294.126 52.9972 294.412 52.7741 294.772 52.6122C295.136 52.4503 295.548 52.3693 296.008 52.3693C296.656 52.3693 297.164 52.5114 297.534 52.7955C297.906 53.0795 298.17 53.4545 298.326 53.9205ZM302.806 52.4545V53.3068H299.414V52.4545H302.806ZM300.403 50.8864H301.408V57.125C301.408 57.4091 301.45 57.6222 301.532 57.7642C301.617 57.9034 301.725 57.9972 301.856 58.0455C301.989 58.0909 302.13 58.1136 302.278 58.1136C302.388 58.1136 302.479 58.108 302.55 58.0966C302.621 58.0824 302.678 58.071 302.721 58.0625L302.925 58.9659C302.857 58.9915 302.762 59.017 302.64 59.0426C302.518 59.071 302.363 59.0852 302.175 59.0852C301.891 59.0852 301.613 59.0241 301.34 58.902C301.07 58.7798 300.846 58.5938 300.667 58.3438C300.491 58.0938 300.403 57.7784 300.403 57.3977V50.8864ZM306.993 59.1364C306.362 59.1364 305.818 58.9972 305.361 58.7188C304.906 58.4375 304.555 58.0455 304.308 57.5426C304.064 57.0369 303.942 56.4489 303.942 55.7784C303.942 55.108 304.064 54.517 304.308 54.0057C304.555 53.4915 304.899 53.0909 305.339 52.804C305.783 52.5142 306.3 52.3693 306.891 52.3693C307.232 52.3693 307.568 52.4261 307.901 52.5398C308.233 52.6534 308.536 52.8381 308.808 53.0938C309.081 53.3466 309.298 53.6818 309.46 54.0994C309.622 54.517 309.703 55.0312 309.703 55.642V56.0682H304.658V55.1989H308.68C308.68 54.8295 308.607 54.5 308.459 54.2102C308.314 53.9205 308.107 53.6918 307.837 53.5241C307.57 53.3565 307.254 53.2727 306.891 53.2727C306.49 53.2727 306.143 53.3722 305.851 53.571C305.561 53.767 305.338 54.0227 305.182 54.3381C305.026 54.6534 304.947 54.9915 304.947 55.3523V55.9318C304.947 56.4261 305.033 56.8452 305.203 57.1889C305.376 57.5298 305.616 57.7898 305.923 57.9688C306.23 58.1449 306.587 58.233 306.993 58.233C307.257 58.233 307.496 58.196 307.709 58.1222C307.925 58.0455 308.111 57.9318 308.267 57.7812C308.423 57.6278 308.544 57.4375 308.629 57.2102L309.601 57.483C309.499 57.8125 309.327 58.1023 309.085 58.3523C308.844 58.5994 308.545 58.7926 308.19 58.9318C307.835 59.0682 307.436 59.1364 306.993 59.1364ZM311.233 59V52.4545H312.205V53.4773H312.29C312.426 53.1278 312.646 52.8565 312.95 52.6634C313.254 52.4673 313.619 52.3693 314.045 52.3693C314.477 52.3693 314.837 52.4673 315.124 52.6634C315.413 52.8565 315.639 53.1278 315.801 53.4773H315.869C316.037 53.1392 316.288 52.8707 316.624 52.6719C316.959 52.4702 317.361 52.3693 317.83 52.3693C318.415 52.3693 318.893 52.5526 319.266 52.919C319.638 53.2827 319.824 53.8494 319.824 54.6193V59H318.818V54.6193C318.818 54.1364 318.686 53.7912 318.422 53.5838C318.158 53.3764 317.847 53.2727 317.489 53.2727C317.028 53.2727 316.672 53.4119 316.419 53.6903C316.166 53.9659 316.04 54.3153 316.04 54.7386V59H315.017V54.517C315.017 54.1449 314.896 53.8452 314.655 53.6179C314.413 53.3878 314.102 53.2727 313.722 53.2727C313.46 53.2727 313.216 53.3423 312.989 53.4815C312.764 53.6207 312.582 53.8139 312.443 54.0611C312.307 54.3054 312.239 54.5881 312.239 54.9091V59H311.233ZM327.441 55.9318L321.952 58.7273V57.6364L326.163 55.608L326.129 55.6761V55.5057L326.163 55.5739L321.952 53.5455V52.4545L327.441 55.25V55.9318ZM335.351 55.9318L329.863 58.7273V57.6364L334.073 55.608L334.039 55.6761V55.5057L334.073 55.5739L329.863 53.5455V52.4545L335.351 55.25V55.9318Z" fill="black"/>
<path d="M241.415 82H240.307L243.511 73.2727H244.602L247.807 82H246.699L244.091 74.6534H244.023L241.415 82ZM241.824 78.5909H246.29V79.5284H241.824V78.5909ZM250.223 73.2727V82H249.166V73.2727H250.223ZM259.706 79.3239V75.4545H260.711V82H259.706V80.892H259.637C259.484 81.2244 259.245 81.5071 258.922 81.7401C258.598 81.9702 258.189 82.0852 257.694 82.0852C257.285 82.0852 256.922 81.9957 256.603 81.8168C256.285 81.6349 256.035 81.3622 255.853 80.9986C255.672 80.6321 255.581 80.1705 255.581 79.6136V75.4545H256.586V79.5455C256.586 80.0227 256.72 80.4034 256.987 80.6875C257.257 80.9716 257.6 81.1136 258.018 81.1136C258.268 81.1136 258.522 81.0497 258.781 80.9219C259.042 80.794 259.261 80.598 259.437 80.3338C259.616 80.0696 259.706 79.733 259.706 79.3239ZM267.19 76.9205L266.286 77.1761C266.229 77.0256 266.146 76.8793 266.035 76.7372C265.927 76.5923 265.779 76.473 265.592 76.3793C265.404 76.2855 265.164 76.2386 264.871 76.2386C264.471 76.2386 264.137 76.331 263.87 76.5156C263.606 76.6974 263.474 76.929 263.474 77.2102C263.474 77.4602 263.565 77.6577 263.746 77.8026C263.928 77.9474 264.212 78.0682 264.599 78.1648L265.57 78.4034C266.156 78.5455 266.592 78.7628 266.879 79.0554C267.165 79.3452 267.309 79.7187 267.309 80.1761C267.309 80.5511 267.201 80.8864 266.985 81.1818C266.772 81.4773 266.474 81.7102 266.09 81.8807C265.707 82.0511 265.261 82.1364 264.752 82.1364C264.085 82.1364 263.532 81.9915 263.094 81.7017C262.657 81.4119 262.38 80.9886 262.263 80.4318L263.218 80.1932C263.309 80.5455 263.481 80.8097 263.734 80.9858C263.989 81.1619 264.323 81.25 264.735 81.25C265.204 81.25 265.576 81.1506 265.852 80.9517C266.13 80.75 266.269 80.5085 266.269 80.2273C266.269 80 266.19 79.8097 266.031 79.6562C265.871 79.5 265.627 79.3835 265.298 79.3068L264.207 79.0511C263.607 78.9091 263.167 78.6889 262.886 78.3906C262.607 78.0895 262.468 77.7131 262.468 77.2614C262.468 76.892 262.572 76.5653 262.779 76.2812C262.989 75.9972 263.275 75.7741 263.636 75.6122C263.999 75.4503 264.411 75.3693 264.871 75.3693C265.519 75.3693 266.028 75.5114 266.397 75.7955C266.769 76.0795 267.033 76.4545 267.19 76.9205ZM271.567 82.1364C270.936 82.1364 270.392 81.9972 269.935 81.7188C269.48 81.4375 269.13 81.0455 268.882 80.5426C268.638 80.0369 268.516 79.4489 268.516 78.7784C268.516 78.108 268.638 77.517 268.882 77.0057C269.13 76.4915 269.473 76.0909 269.914 75.804C270.357 75.5142 270.874 75.3693 271.465 75.3693C271.806 75.3693 272.142 75.4261 272.475 75.5398C272.807 75.6534 273.11 75.8381 273.382 76.0938C273.655 76.3466 273.873 76.6818 274.034 77.0994C274.196 77.517 274.277 78.0312 274.277 78.642V79.0682H269.232V78.1989H273.255C273.255 77.8295 273.181 77.5 273.033 77.2102C272.888 76.9205 272.681 76.6918 272.411 76.5241C272.144 76.3565 271.828 76.2727 271.465 76.2727C271.064 76.2727 270.718 76.3722 270.425 76.571C270.135 76.767 269.912 77.0227 269.756 77.3381C269.6 77.6534 269.522 77.9915 269.522 78.3523V78.9318C269.522 79.4261 269.607 79.8452 269.777 80.1889C269.951 80.5298 270.191 80.7898 270.498 80.9688C270.804 81.1449 271.161 81.233 271.567 81.233C271.831 81.233 272.07 81.196 272.283 81.1222C272.499 81.0455 272.685 80.9318 272.841 80.7812C272.998 80.6278 273.118 80.4375 273.203 80.2102L274.175 80.483C274.073 80.8125 273.901 81.1023 273.659 81.3523C273.418 81.5994 273.12 81.7926 272.765 81.9318C272.409 82.0682 272.01 82.1364 271.567 82.1364ZM275.807 82V75.4545H276.779V76.4432H276.847C276.966 76.1193 277.182 75.8565 277.495 75.6548C277.807 75.4531 278.159 75.3523 278.551 75.3523C278.625 75.3523 278.718 75.3537 278.828 75.3565C278.939 75.3594 279.023 75.3636 279.08 75.3693V76.392C279.046 76.3835 278.968 76.3707 278.846 76.3537C278.726 76.3338 278.6 76.3239 278.466 76.3239C278.148 76.3239 277.864 76.3906 277.614 76.5241C277.367 76.6548 277.171 76.8366 277.026 77.0696C276.884 77.2997 276.813 77.5625 276.813 77.858V82H275.807ZM283.542 77.7898V78.7273H279.723V77.7898H283.542ZM289.947 76.9205L289.044 77.1761C288.987 77.0256 288.903 76.8793 288.793 76.7372C288.685 76.5923 288.537 76.473 288.349 76.3793C288.162 76.2855 287.922 76.2386 287.629 76.2386C287.229 76.2386 286.895 76.331 286.628 76.5156C286.364 76.6974 286.232 76.929 286.232 77.2102C286.232 77.4602 286.322 77.6577 286.504 77.8026C286.686 77.9474 286.97 78.0682 287.357 78.1648L288.328 78.4034C288.913 78.5455 289.349 78.7628 289.636 79.0554C289.923 79.3452 290.067 79.7187 290.067 80.1761C290.067 80.5511 289.959 80.8864 289.743 81.1818C289.53 81.4773 289.232 81.7102 288.848 81.8807C288.464 82.0511 288.018 82.1364 287.51 82.1364C286.842 82.1364 286.29 81.9915 285.852 81.7017C285.415 81.4119 285.138 80.9886 285.021 80.4318L285.976 80.1932C286.067 80.5455 286.239 80.8097 286.491 80.9858C286.747 81.1619 287.081 81.25 287.493 81.25C287.962 81.25 288.334 81.1506 288.609 80.9517C288.888 80.75 289.027 80.5085 289.027 80.2273C289.027 80 288.947 79.8097 288.788 79.6562C288.629 79.5 288.385 79.3835 288.055 79.3068L286.964 79.0511C286.365 78.9091 285.925 78.6889 285.643 78.3906C285.365 78.0895 285.226 77.7131 285.226 77.2614C285.226 76.892 285.33 76.5653 285.537 76.2812C285.747 75.9972 286.033 75.7741 286.393 75.6122C286.757 75.4503 287.169 75.3693 287.629 75.3693C288.277 75.3693 288.786 75.5114 289.155 75.7955C289.527 76.0795 289.791 76.4545 289.947 76.9205ZM294.325 82.1364C293.694 82.1364 293.15 81.9972 292.693 81.7188C292.238 81.4375 291.887 81.0455 291.64 80.5426C291.396 80.0369 291.274 79.4489 291.274 78.7784C291.274 78.108 291.396 77.517 291.64 77.0057C291.887 76.4915 292.231 76.0909 292.672 75.804C293.115 75.5142 293.632 75.3693 294.223 75.3693C294.564 75.3693 294.9 75.4261 295.233 75.5398C295.565 75.6534 295.868 75.8381 296.14 76.0938C296.413 76.3466 296.63 76.6818 296.792 77.0994C296.954 77.517 297.035 78.0312 297.035 78.642V79.0682H291.99V78.1989H296.012C296.012 77.8295 295.939 77.5 295.791 77.2102C295.646 76.9205 295.439 76.6918 295.169 76.5241C294.902 76.3565 294.586 76.2727 294.223 76.2727C293.822 76.2727 293.475 76.3722 293.183 76.571C292.893 76.767 292.67 77.0227 292.514 77.3381C292.358 77.6534 292.279 77.9915 292.279 78.3523V78.9318C292.279 79.4261 292.365 79.8452 292.535 80.1889C292.708 80.5298 292.949 80.7898 293.255 80.9688C293.562 81.1449 293.919 81.233 294.325 81.233C294.589 81.233 294.828 81.196 295.041 81.1222C295.257 81.0455 295.443 80.9318 295.599 80.7812C295.755 80.6278 295.876 80.4375 295.961 80.2102L296.933 80.483C296.831 80.8125 296.659 81.1023 296.417 81.3523C296.176 81.5994 295.877 81.7926 295.522 81.9318C295.167 82.0682 294.768 82.1364 294.325 82.1364ZM299.571 73.2727V82H298.565V73.2727H299.571ZM302.418 73.2727V82H301.413V73.2727H302.418ZM307.005 82.1364C306.374 82.1364 305.83 81.9972 305.373 81.7188C304.918 81.4375 304.567 81.0455 304.32 80.5426C304.076 80.0369 303.953 79.4489 303.953 78.7784C303.953 78.108 304.076 77.517 304.32 77.0057C304.567 76.4915 304.911 76.0909 305.351 75.804C305.794 75.5142 306.311 75.3693 306.902 75.3693C307.243 75.3693 307.58 75.4261 307.912 75.5398C308.245 75.6534 308.547 75.8381 308.82 76.0938C309.093 76.3466 309.31 76.6818 309.472 77.0994C309.634 77.517 309.715 78.0312 309.715 78.642V79.0682H304.669V78.1989H308.692C308.692 77.8295 308.618 77.5 308.471 77.2102C308.326 76.9205 308.118 76.6918 307.848 76.5241C307.581 76.3565 307.266 76.2727 306.902 76.2727C306.502 76.2727 306.155 76.3722 305.863 76.571C305.573 76.767 305.35 77.0227 305.194 77.3381C305.037 77.6534 304.959 77.9915 304.959 78.3523V78.9318C304.959 79.4261 305.044 79.8452 305.215 80.1889C305.388 80.5298 305.628 80.7898 305.935 80.9688C306.242 81.1449 306.598 81.233 307.005 81.233C307.269 81.233 307.507 81.196 307.721 81.1222C307.936 81.0455 308.123 80.9318 308.279 80.7812C308.435 80.6278 308.556 80.4375 308.641 80.2102L309.613 80.483C309.51 80.8125 309.338 81.1023 309.097 81.3523C308.855 81.5994 308.557 81.7926 308.202 81.9318C307.847 82.0682 307.448 82.1364 307.005 82.1364ZM311.245 82V75.4545H312.216V76.4432H312.284C312.404 76.1193 312.62 75.8565 312.932 75.6548C313.245 75.4531 313.597 75.3523 313.989 75.3523C314.063 75.3523 314.155 75.3537 314.266 75.3565C314.377 75.3594 314.461 75.3636 314.517 75.3693V76.392C314.483 76.3835 314.405 76.3707 314.283 76.3537C314.164 76.3338 314.037 76.3239 313.904 76.3239C313.586 76.3239 313.301 76.3906 313.051 76.5241C312.804 76.6548 312.608 76.8366 312.463 77.0696C312.321 77.2997 312.25 77.5625 312.25 77.858V82H311.245ZM321.931 75.4545V76.3068H318.539V75.4545H321.931ZM319.528 73.8864H320.533V80.125C320.533 80.4091 320.575 80.6222 320.657 80.7642C320.742 80.9034 320.85 80.9972 320.981 81.0455C321.114 81.0909 321.255 81.1136 321.403 81.1136C321.513 81.1136 321.604 81.108 321.675 81.0966C321.746 81.0824 321.803 81.071 321.846 81.0625L322.05 81.9659C321.982 81.9915 321.887 82.017 321.765 82.0426C321.643 82.071 321.488 82.0852 321.3 82.0852C321.016 82.0852 320.738 82.0241 320.465 81.902C320.195 81.7798 319.971 81.5938 319.792 81.3438C319.616 81.0938 319.528 80.7784 319.528 80.3977V73.8864ZM323.444 82V75.4545H324.415V76.4432H324.484C324.603 76.1193 324.819 75.8565 325.131 75.6548C325.444 75.4531 325.796 75.3523 326.188 75.3523C326.262 75.3523 326.354 75.3537 326.465 75.3565C326.576 75.3594 326.66 75.3636 326.717 75.3693V76.392C326.683 76.3835 326.604 76.3707 326.482 76.3537C326.363 76.3338 326.237 76.3239 326.103 76.3239C325.785 76.3239 325.501 76.3906 325.251 76.5241C325.004 76.6548 324.808 76.8366 324.663 77.0696C324.521 77.2997 324.45 77.5625 324.45 77.858V82H323.444ZM329.835 82.1534C329.42 82.1534 329.044 82.0753 328.706 81.919C328.368 81.7599 328.099 81.5312 327.9 81.233C327.701 80.9318 327.602 80.5682 327.602 80.142C327.602 79.767 327.676 79.4631 327.824 79.2301C327.971 78.9943 328.169 78.8097 328.416 78.6761C328.663 78.5426 328.936 78.4432 329.234 78.3778C329.535 78.3097 329.838 78.2557 330.142 78.2159C330.539 78.1648 330.862 78.1264 331.109 78.1009C331.359 78.0724 331.541 78.0256 331.654 77.9602C331.771 77.8949 331.829 77.7812 331.829 77.6193V77.5852C331.829 77.1648 331.714 76.8381 331.484 76.6051C331.257 76.3722 330.912 76.2557 330.449 76.2557C329.968 76.2557 329.592 76.3608 329.319 76.571C329.047 76.7812 328.855 77.0057 328.744 77.2443L327.789 76.9034C327.96 76.5057 328.187 76.196 328.471 75.9744C328.758 75.75 329.071 75.5937 329.409 75.5057C329.75 75.4148 330.085 75.3693 330.414 75.3693C330.625 75.3693 330.866 75.3949 331.139 75.446C331.414 75.4943 331.68 75.5952 331.936 75.7486C332.194 75.902 332.409 76.1335 332.579 76.4432C332.75 76.7528 332.835 77.1676 332.835 77.6875V82H331.829V81.1136H331.778C331.71 81.2557 331.596 81.4077 331.437 81.5696C331.278 81.7315 331.066 81.8693 330.802 81.983C330.538 82.0966 330.216 82.1534 329.835 82.1534ZM329.988 81.25C330.386 81.25 330.721 81.1719 330.994 81.0156C331.27 80.8594 331.477 80.6577 331.616 80.4105C331.758 80.1634 331.829 79.9034 331.829 79.6307V78.7102C331.787 78.7614 331.693 78.8082 331.548 78.8509C331.406 78.8906 331.241 78.9261 331.054 78.9574C330.869 78.9858 330.689 79.0114 330.512 79.0341C330.339 79.054 330.199 79.071 330.091 79.0852C329.829 79.1193 329.585 79.1747 329.358 79.2514C329.133 79.3253 328.951 79.4375 328.812 79.5881C328.676 79.7358 328.608 79.9375 328.608 80.1932C328.608 80.5426 328.737 80.8068 328.995 80.9858C329.257 81.1619 329.588 81.25 329.988 81.25ZM334.67 82V75.4545H335.676V82H334.67ZM335.182 74.3636C334.986 74.3636 334.817 74.2969 334.675 74.1634C334.536 74.0298 334.466 73.8693 334.466 73.6818C334.466 73.4943 334.536 73.3338 334.675 73.2003C334.817 73.0668 334.986 73 335.182 73C335.378 73 335.545 73.0668 335.685 73.2003C335.827 73.3338 335.898 73.4943 335.898 73.6818C335.898 73.8693 335.827 74.0298 335.685 74.1634C335.545 74.2969 335.378 74.3636 335.182 74.3636ZM338.524 78.0625V82H337.518V75.4545H338.49V76.4773H338.575C338.728 76.1449 338.961 75.8778 339.274 75.6761C339.586 75.4716 339.99 75.3693 340.484 75.3693C340.927 75.3693 341.315 75.4602 341.647 75.642C341.98 75.821 342.238 76.0938 342.423 76.4602C342.608 76.8239 342.7 77.2841 342.7 77.8409V82H341.694V77.9091C341.694 77.3949 341.561 76.9943 341.294 76.7074C341.027 76.4176 340.66 76.2727 340.194 76.2727C339.873 76.2727 339.586 76.3423 339.333 76.4815C339.083 76.6207 338.886 76.8239 338.741 77.0909C338.596 77.358 338.524 77.6818 338.524 78.0625ZM344.538 82V75.4545H345.543V82H344.538ZM345.049 74.3636C344.853 74.3636 344.684 74.2969 344.542 74.1634C344.403 74.0298 344.333 73.8693 344.333 73.6818C344.333 73.4943 344.403 73.3338 344.542 73.2003C344.684 73.0668 344.853 73 345.049 73C345.245 73 345.413 73.0668 345.552 73.2003C345.694 73.3338 345.765 73.4943 345.765 73.6818C345.765 73.8693 345.694 74.0298 345.552 74.1634C345.413 74.2969 345.245 74.3636 345.049 74.3636ZM348.391 78.0625V82H347.385V75.4545H348.357V76.4773H348.442C348.596 76.1449 348.828 75.8778 349.141 75.6761C349.453 75.4716 349.857 75.3693 350.351 75.3693C350.794 75.3693 351.182 75.4602 351.515 75.642C351.847 75.821 352.105 76.0938 352.29 76.4602C352.475 76.8239 352.567 77.2841 352.567 77.8409V82H351.561V77.9091C351.561 77.3949 351.428 76.9943 351.161 76.7074C350.894 76.4176 350.527 76.2727 350.061 76.2727C349.74 76.2727 349.453 76.3423 349.201 76.4815C348.951 76.6207 348.753 76.8239 348.608 77.0909C348.463 77.358 348.391 77.6818 348.391 78.0625ZM357.047 84.5909C356.561 84.5909 356.143 84.5284 355.794 84.4034C355.445 84.2812 355.153 84.1193 354.92 83.9176C354.69 83.7188 354.507 83.5057 354.371 83.2784L355.172 82.7159C355.263 82.8352 355.378 82.9716 355.517 83.125C355.656 83.2812 355.847 83.4162 356.088 83.5298C356.332 83.6463 356.652 83.7045 357.047 83.7045C357.575 83.7045 358.011 83.5767 358.355 83.321C358.699 83.0653 358.871 82.6648 358.871 82.1193V80.7898H358.786C358.712 80.9091 358.607 81.0568 358.47 81.233C358.337 81.4062 358.143 81.5611 357.891 81.6974C357.641 81.831 357.303 81.8977 356.876 81.8977C356.348 81.8977 355.874 81.7727 355.453 81.5227C355.036 81.2727 354.705 80.9091 354.46 80.4318C354.219 79.9545 354.098 79.375 354.098 78.6932C354.098 78.0227 354.216 77.4389 354.452 76.9418C354.688 76.4418 355.016 76.0554 355.436 75.7827C355.857 75.5071 356.342 75.3693 356.893 75.3693C357.32 75.3693 357.658 75.4403 357.908 75.5824C358.161 75.7216 358.354 75.8807 358.487 76.0597C358.624 76.2358 358.729 76.3807 358.803 76.4943H358.905V75.4545H359.876V82.1875C359.876 82.75 359.749 83.2074 359.493 83.5597C359.24 83.9148 358.899 84.1747 358.47 84.3395C358.044 84.5071 357.57 84.5909 357.047 84.5909ZM357.013 80.9943C357.416 80.9943 357.757 80.902 358.036 80.7173C358.314 80.5327 358.526 80.267 358.67 79.9205C358.815 79.5739 358.888 79.1591 358.888 78.6761C358.888 78.2045 358.817 77.7884 358.675 77.4276C358.533 77.0668 358.322 76.7841 358.044 76.5795C357.766 76.375 357.422 76.2727 357.013 76.2727C356.587 76.2727 356.232 76.3807 355.947 76.5966C355.666 76.8125 355.455 77.1023 355.312 77.4659C355.173 77.8295 355.104 78.233 355.104 78.6761C355.104 79.1307 355.175 79.5327 355.317 79.8821C355.462 80.2287 355.675 80.5014 355.956 80.7003C356.24 80.8963 356.592 80.9943 357.013 80.9943Z" fill="black"/>
<rect x="32.5" y="122.5" width="188" height="124" fill="#F0EBAD" stroke="#7D7300"/>
<rect x="32.5" y="109.5" width="94.5" height="14" fill="#F0EBAD" stroke="#7D7300"/>
<path d="M96.0568 141V132.273H101.29V133.21H97.1136V136.159H100.898V137.097H97.1136V141H96.0568ZM102.893 141V134.455H103.865V135.443H103.933C104.052 135.119 104.268 134.857 104.581 134.655C104.893 134.453 105.245 134.352 105.637 134.352C105.711 134.352 105.804 134.354 105.914 134.357C106.025 134.359 106.109 134.364 106.166 134.369V135.392C106.132 135.384 106.054 135.371 105.931 135.354C105.812 135.334 105.686 135.324 105.552 135.324C105.234 135.324 104.95 135.391 104.7 135.524C104.453 135.655 104.257 135.837 104.112 136.07C103.97 136.3 103.899 136.562 103.899 136.858V141H102.893ZM109.818 141.136C109.227 141.136 108.708 140.996 108.262 140.714C107.819 140.433 107.473 140.04 107.223 139.534C106.975 139.028 106.852 138.437 106.852 137.761C106.852 137.08 106.975 136.484 107.223 135.976C107.473 135.467 107.819 135.072 108.262 134.791C108.708 134.51 109.227 134.369 109.818 134.369C110.409 134.369 110.926 134.51 111.369 134.791C111.815 135.072 112.162 135.467 112.409 135.976C112.659 136.484 112.784 137.08 112.784 137.761C112.784 138.437 112.659 139.028 112.409 139.534C112.162 140.04 111.815 140.433 111.369 140.714C110.926 140.996 110.409 141.136 109.818 141.136ZM109.818 140.233C110.267 140.233 110.636 140.118 110.926 139.888C111.216 139.658 111.43 139.355 111.569 138.98C111.708 138.605 111.778 138.199 111.778 137.761C111.778 137.324 111.708 136.916 111.569 136.538C111.43 136.161 111.216 135.855 110.926 135.622C110.636 135.389 110.267 135.273 109.818 135.273C109.369 135.273 109 135.389 108.71 135.622C108.42 135.855 108.206 136.161 108.066 136.538C107.927 136.916 107.858 137.324 107.858 137.761C107.858 138.199 107.927 138.605 108.066 138.98C108.206 139.355 108.42 139.658 108.71 139.888C109 140.118 109.369 140.233 109.818 140.233ZM115.325 137.062V141H114.319V134.455H115.29V135.477H115.376C115.529 135.145 115.762 134.878 116.075 134.676C116.387 134.472 116.79 134.369 117.285 134.369C117.728 134.369 118.116 134.46 118.448 134.642C118.781 134.821 119.039 135.094 119.224 135.46C119.408 135.824 119.501 136.284 119.501 136.841V141H118.495V136.909C118.495 136.395 118.362 135.994 118.094 135.707C117.827 135.418 117.461 135.273 116.995 135.273C116.674 135.273 116.387 135.342 116.134 135.482C115.884 135.621 115.687 135.824 115.542 136.091C115.397 136.358 115.325 136.682 115.325 137.062ZM124.185 134.455V135.307H120.793V134.455H124.185ZM121.782 132.886H122.787V139.125C122.787 139.409 122.828 139.622 122.911 139.764C122.996 139.903 123.104 139.997 123.235 140.045C123.368 140.091 123.509 140.114 123.657 140.114C123.767 140.114 123.858 140.108 123.929 140.097C124 140.082 124.057 140.071 124.1 140.062L124.304 140.966C124.236 140.991 124.141 141.017 124.019 141.043C123.897 141.071 123.742 141.085 123.554 141.085C123.27 141.085 122.992 141.024 122.719 140.902C122.449 140.78 122.225 140.594 122.046 140.344C121.87 140.094 121.782 139.778 121.782 139.398V132.886ZM131.817 141.136C131.186 141.136 130.642 140.997 130.185 140.719C129.73 140.438 129.38 140.045 129.132 139.543C128.888 139.037 128.766 138.449 128.766 137.778C128.766 137.108 128.888 136.517 129.132 136.006C129.38 135.491 129.723 135.091 130.164 134.804C130.607 134.514 131.124 134.369 131.715 134.369C132.056 134.369 132.392 134.426 132.725 134.54C133.057 134.653 133.36 134.838 133.632 135.094C133.905 135.347 134.123 135.682 134.284 136.099C134.446 136.517 134.527 137.031 134.527 137.642V138.068H129.482V137.199H133.505C133.505 136.83 133.431 136.5 133.283 136.21C133.138 135.92 132.931 135.692 132.661 135.524C132.394 135.357 132.078 135.273 131.715 135.273C131.314 135.273 130.968 135.372 130.675 135.571C130.385 135.767 130.162 136.023 130.006 136.338C129.85 136.653 129.772 136.991 129.772 137.352V137.932C129.772 138.426 129.857 138.845 130.027 139.189C130.201 139.53 130.441 139.79 130.748 139.969C131.054 140.145 131.411 140.233 131.817 140.233C132.081 140.233 132.32 140.196 132.533 140.122C132.749 140.045 132.935 139.932 133.091 139.781C133.248 139.628 133.368 139.437 133.453 139.21L134.425 139.483C134.323 139.812 134.151 140.102 133.909 140.352C133.668 140.599 133.37 140.793 133.015 140.932C132.659 141.068 132.26 141.136 131.817 141.136ZM137.063 137.062V141H136.057V134.455H137.029V135.477H137.114C137.267 135.145 137.5 134.878 137.813 134.676C138.125 134.472 138.529 134.369 139.023 134.369C139.466 134.369 139.854 134.46 140.186 134.642C140.519 134.821 140.777 135.094 140.962 135.46C141.147 135.824 141.239 136.284 141.239 136.841V141H140.233V136.909C140.233 136.395 140.1 135.994 139.833 135.707C139.566 135.418 139.199 135.273 138.733 135.273C138.412 135.273 138.125 135.342 137.873 135.482C137.623 135.621 137.425 135.824 137.28 136.091C137.135 136.358 137.063 136.682 137.063 137.062ZM145.548 141.136C145.003 141.136 144.521 140.999 144.104 140.723C143.686 140.445 143.359 140.053 143.124 139.547C142.888 139.038 142.77 138.438 142.77 137.744C142.77 137.057 142.888 136.46 143.124 135.955C143.359 135.449 143.688 135.058 144.108 134.783C144.528 134.507 145.014 134.369 145.565 134.369C145.991 134.369 146.328 134.44 146.575 134.582C146.825 134.722 147.016 134.881 147.146 135.06C147.28 135.236 147.384 135.381 147.457 135.494H147.543V132.273H148.548V141H147.577V139.994H147.457C147.384 140.114 147.278 140.264 147.142 140.446C147.006 140.625 146.811 140.786 146.558 140.928C146.305 141.067 145.969 141.136 145.548 141.136ZM145.685 140.233C146.088 140.233 146.429 140.128 146.707 139.918C146.986 139.705 147.197 139.411 147.342 139.036C147.487 138.658 147.56 138.222 147.56 137.727C147.56 137.239 147.489 136.811 147.347 136.445C147.205 136.075 146.994 135.788 146.716 135.584C146.438 135.376 146.094 135.273 145.685 135.273C145.259 135.273 144.903 135.382 144.619 135.601C144.338 135.817 144.126 136.111 143.984 136.483C143.845 136.852 143.776 137.267 143.776 137.727C143.776 138.193 143.847 138.616 143.989 138.997C144.134 139.375 144.347 139.676 144.628 139.901C144.912 140.122 145.264 140.233 145.685 140.233Z" fill="black"/>
<rect x="46.5" y="160.5" width="159" height="71" fill="#D9D9D9" stroke="#999999"/>
<rect x="46.5" y="150.5" width="79" height="9" fill="#D9D9D9" stroke="#999999"/>
<path d="M88.7841 192.273H89.8409V198.051C89.8409 198.648 89.7003 199.18 89.419 199.649C89.1406 200.115 88.7472 200.483 88.2386 200.753C87.7301 201.02 87.1335 201.153 86.4489 201.153C85.7642 201.153 85.1676 201.02 84.6591 200.753C84.1506 200.483 83.7557 200.115 83.4744 199.649C83.196 199.18 83.0568 198.648 83.0568 198.051V192.273H84.1136V197.966C84.1136 198.392 84.2074 198.771 84.3949 199.104C84.5824 199.433 84.8494 199.693 85.196 199.884C85.5455 200.071 85.9631 200.165 86.4489 200.165C86.9347 200.165 87.3523 200.071 87.7017 199.884C88.0511 199.693 88.3182 199.433 88.5028 199.104C88.6903 198.771 88.7841 198.392 88.7841 197.966V192.273ZM96.4513 195.92L95.5479 196.176C95.4911 196.026 95.4073 195.879 95.2965 195.737C95.1886 195.592 95.0408 195.473 94.8533 195.379C94.6658 195.286 94.4258 195.239 94.1332 195.239C93.7326 195.239 93.3988 195.331 93.1317 195.516C92.8675 195.697 92.7354 195.929 92.7354 196.21C92.7354 196.46 92.8263 196.658 93.0082 196.803C93.19 196.947 93.4741 197.068 93.8604 197.165L94.832 197.403C95.4173 197.545 95.8533 197.763 96.1403 198.055C96.4272 198.345 96.5707 198.719 96.5707 199.176C96.5707 199.551 96.4627 199.886 96.2468 200.182C96.0337 200.477 95.7354 200.71 95.3519 200.881C94.9684 201.051 94.5224 201.136 94.0138 201.136C93.3462 201.136 92.7937 200.991 92.3562 200.702C91.9187 200.412 91.6417 199.989 91.5252 199.432L92.4798 199.193C92.5707 199.545 92.7425 199.81 92.9954 199.986C93.2511 200.162 93.5849 200.25 93.9968 200.25C94.4656 200.25 94.8377 200.151 95.1133 199.952C95.3917 199.75 95.5309 199.509 95.5309 199.227C95.5309 199 95.4513 198.81 95.2923 198.656C95.1332 198.5 94.8888 198.384 94.5593 198.307L93.4684 198.051C92.869 197.909 92.4286 197.689 92.1474 197.391C91.869 197.089 91.7298 196.713 91.7298 196.261C91.7298 195.892 91.8335 195.565 92.0408 195.281C92.2511 194.997 92.5366 194.774 92.8974 194.612C93.261 194.45 93.6729 194.369 94.1332 194.369C94.7809 194.369 95.2894 194.511 95.6587 194.795C96.0309 195.08 96.2951 195.455 96.4513 195.92ZM100.829 201.136C100.198 201.136 99.6541 200.997 99.1967 200.719C98.7422 200.438 98.3913 200.045 98.1442 199.543C97.8999 199.037 97.7777 198.449 97.7777 197.778C97.7777 197.108 97.8999 196.517 98.1442 196.006C98.3913 195.491 98.7351 195.091 99.1754 194.804C99.6186 194.514 100.136 194.369 100.727 194.369C101.067 194.369 101.404 194.426 101.737 194.54C102.069 194.653 102.371 194.838 102.644 195.094C102.917 195.347 103.134 195.682 103.296 196.099C103.458 196.517 103.539 197.031 103.539 197.642V198.068H98.4936V197.199H102.516C102.516 196.83 102.442 196.5 102.295 196.21C102.15 195.92 101.942 195.692 101.673 195.524C101.406 195.357 101.09 195.273 100.727 195.273C100.326 195.273 99.9794 195.372 99.6868 195.571C99.397 195.767 99.174 196.023 99.0178 196.338C98.8615 196.653 98.7834 196.991 98.7834 197.352V197.932C98.7834 198.426 98.8686 198.845 99.0391 199.189C99.2124 199.53 99.4524 199.79 99.7592 199.969C100.066 200.145 100.423 200.233 100.829 200.233C101.093 200.233 101.332 200.196 101.545 200.122C101.761 200.045 101.947 199.932 102.103 199.781C102.259 199.628 102.38 199.437 102.465 199.21L103.437 199.483C103.335 199.812 103.163 200.102 102.921 200.352C102.68 200.599 102.381 200.793 102.026 200.932C101.671 201.068 101.272 201.136 100.829 201.136ZM105.069 201V194.455H106.04V195.443H106.109C106.228 195.119 106.444 194.857 106.756 194.655C107.069 194.453 107.421 194.352 107.813 194.352C107.887 194.352 107.979 194.354 108.09 194.357C108.201 194.359 108.285 194.364 108.342 194.369V195.392C108.308 195.384 108.229 195.371 108.107 195.354C107.988 195.334 107.862 195.324 107.728 195.324C107.41 195.324 107.126 195.391 106.876 195.524C106.629 195.655 106.433 195.837 106.288 196.07C106.146 196.3 106.075 196.562 106.075 196.858V201H105.069ZM114.102 192.273V201H113.045V192.273H114.102ZM117.09 197.062V201H116.085V194.455H117.056V195.477H117.141C117.295 195.145 117.528 194.878 117.84 194.676C118.153 194.472 118.556 194.369 119.05 194.369C119.494 194.369 119.881 194.46 120.214 194.642C120.546 194.821 120.805 195.094 120.989 195.46C121.174 195.824 121.266 196.284 121.266 196.841V201H120.261V196.909C120.261 196.395 120.127 195.994 119.86 195.707C119.593 195.418 119.227 195.273 118.761 195.273C118.44 195.273 118.153 195.342 117.9 195.482C117.65 195.621 117.452 195.824 117.308 196.091C117.163 196.358 117.09 196.682 117.09 197.062ZM125.951 194.455V195.307H122.559V194.455H125.951ZM123.547 192.886H124.553V199.125C124.553 199.409 124.594 199.622 124.676 199.764C124.762 199.903 124.87 199.997 125 200.045C125.134 200.091 125.275 200.114 125.422 200.114C125.533 200.114 125.624 200.108 125.695 200.097C125.766 200.082 125.823 200.071 125.865 200.062L126.07 200.966C126.002 200.991 125.907 201.017 125.784 201.043C125.662 201.071 125.507 201.085 125.32 201.085C125.036 201.085 124.757 201.024 124.485 200.902C124.215 200.78 123.99 200.594 123.811 200.344C123.635 200.094 123.547 199.778 123.547 199.398V192.886ZM130.137 201.136C129.507 201.136 128.963 200.997 128.505 200.719C128.051 200.438 127.7 200.045 127.453 199.543C127.208 199.037 127.086 198.449 127.086 197.778C127.086 197.108 127.208 196.517 127.453 196.006C127.7 195.491 128.044 195.091 128.484 194.804C128.927 194.514 129.444 194.369 130.035 194.369C130.376 194.369 130.713 194.426 131.045 194.54C131.377 194.653 131.68 194.838 131.953 195.094C132.225 195.347 132.443 195.682 132.605 196.099C132.767 196.517 132.848 197.031 132.848 197.642V198.068H127.802V197.199H131.825C131.825 196.83 131.751 196.5 131.603 196.21C131.458 195.92 131.251 195.692 130.981 195.524C130.714 195.357 130.399 195.273 130.035 195.273C129.635 195.273 129.288 195.372 128.995 195.571C128.706 195.767 128.483 196.023 128.326 196.338C128.17 196.653 128.092 196.991 128.092 197.352V197.932C128.092 198.426 128.177 198.845 128.348 199.189C128.521 199.53 128.761 199.79 129.068 199.969C129.375 200.145 129.731 200.233 130.137 200.233C130.402 200.233 130.64 200.196 130.853 200.122C131.069 200.045 131.255 199.932 131.412 199.781C131.568 199.628 131.689 199.437 131.774 199.21L132.745 199.483C132.643 199.812 132.471 200.102 132.23 200.352C131.988 200.599 131.69 200.793 131.335 200.932C130.98 201.068 130.581 201.136 130.137 201.136ZM134.377 201V194.455H135.349V195.443H135.417C135.537 195.119 135.752 194.857 136.065 194.655C136.377 194.453 136.73 194.352 137.122 194.352C137.196 194.352 137.288 194.354 137.399 194.357C137.51 194.359 137.593 194.364 137.65 194.369V195.392C137.616 195.384 137.538 195.371 137.416 195.354C137.297 195.334 137.17 195.324 137.037 195.324C136.718 195.324 136.434 195.391 136.184 195.524C135.937 195.655 135.741 195.837 135.596 196.07C135.454 196.3 135.383 196.562 135.383 196.858V201H134.377ZM142.167 194.455V195.307H138.639V194.455H142.167ZM139.696 201V193.551C139.696 193.176 139.784 192.864 139.96 192.614C140.136 192.364 140.365 192.176 140.646 192.051C140.927 191.926 141.224 191.864 141.537 191.864C141.784 191.864 141.985 191.884 142.142 191.923C142.298 191.963 142.414 192 142.491 192.034L142.201 192.903C142.15 192.886 142.079 192.865 141.988 192.839C141.9 192.814 141.784 192.801 141.639 192.801C141.306 192.801 141.066 192.885 140.919 193.053C140.774 193.22 140.701 193.466 140.701 193.79V201H139.696ZM145.315 201.153C144.901 201.153 144.524 201.075 144.186 200.919C143.848 200.76 143.58 200.531 143.381 200.233C143.182 199.932 143.082 199.568 143.082 199.142C143.082 198.767 143.156 198.463 143.304 198.23C143.452 197.994 143.649 197.81 143.896 197.676C144.143 197.543 144.416 197.443 144.714 197.378C145.016 197.31 145.318 197.256 145.622 197.216C146.02 197.165 146.342 197.126 146.589 197.101C146.839 197.072 147.021 197.026 147.135 196.96C147.251 196.895 147.31 196.781 147.31 196.619V196.585C147.31 196.165 147.195 195.838 146.964 195.605C146.737 195.372 146.392 195.256 145.929 195.256C145.449 195.256 145.072 195.361 144.8 195.571C144.527 195.781 144.335 196.006 144.224 196.244L143.27 195.903C143.44 195.506 143.668 195.196 143.952 194.974C144.239 194.75 144.551 194.594 144.889 194.506C145.23 194.415 145.565 194.369 145.895 194.369C146.105 194.369 146.347 194.395 146.619 194.446C146.895 194.494 147.161 194.595 147.416 194.749C147.675 194.902 147.889 195.134 148.06 195.443C148.23 195.753 148.315 196.168 148.315 196.688V201H147.31V200.114H147.259C147.19 200.256 147.077 200.408 146.918 200.57C146.759 200.732 146.547 200.869 146.283 200.983C146.018 201.097 145.696 201.153 145.315 201.153ZM145.469 200.25C145.866 200.25 146.202 200.172 146.474 200.016C146.75 199.859 146.957 199.658 147.097 199.411C147.239 199.163 147.31 198.903 147.31 198.631V197.71C147.267 197.761 147.173 197.808 147.028 197.851C146.886 197.891 146.722 197.926 146.534 197.957C146.349 197.986 146.169 198.011 145.993 198.034C145.82 198.054 145.679 198.071 145.571 198.085C145.31 198.119 145.065 198.175 144.838 198.251C144.614 198.325 144.432 198.437 144.293 198.588C144.156 198.736 144.088 198.937 144.088 199.193C144.088 199.543 144.217 199.807 144.476 199.986C144.737 200.162 145.068 200.25 145.469 200.25ZM152.81 201.136C152.196 201.136 151.668 200.991 151.225 200.702C150.782 200.412 150.441 200.013 150.202 199.504C149.963 198.996 149.844 198.415 149.844 197.761C149.844 197.097 149.966 196.51 150.211 196.001C150.458 195.49 150.801 195.091 151.242 194.804C151.685 194.514 152.202 194.369 152.793 194.369C153.253 194.369 153.668 194.455 154.037 194.625C154.407 194.795 154.709 195.034 154.945 195.341C155.181 195.648 155.327 196.006 155.384 196.415H154.378C154.301 196.116 154.131 195.852 153.867 195.622C153.605 195.389 153.253 195.273 152.81 195.273C152.418 195.273 152.074 195.375 151.779 195.58C151.486 195.781 151.257 196.067 151.093 196.436C150.931 196.803 150.85 197.233 150.85 197.727C150.85 198.233 150.929 198.673 151.088 199.048C151.25 199.423 151.478 199.714 151.77 199.922C152.066 200.129 152.412 200.233 152.81 200.233C153.071 200.233 153.309 200.188 153.522 200.097C153.735 200.006 153.915 199.875 154.063 199.705C154.211 199.534 154.316 199.33 154.378 199.091H155.384C155.327 199.477 155.186 199.825 154.962 200.135C154.74 200.442 154.446 200.686 154.08 200.868C153.716 201.047 153.293 201.136 152.81 201.136ZM159.598 201.136C158.968 201.136 158.424 200.997 157.966 200.719C157.512 200.438 157.161 200.045 156.914 199.543C156.669 199.037 156.547 198.449 156.547 197.778C156.547 197.108 156.669 196.517 156.914 196.006C157.161 195.491 157.505 195.091 157.945 194.804C158.388 194.514 158.905 194.369 159.496 194.369C159.837 194.369 160.174 194.426 160.506 194.54C160.838 194.653 161.141 194.838 161.414 195.094C161.686 195.347 161.904 195.682 162.066 196.099C162.228 196.517 162.309 197.031 162.309 197.642V198.068H157.263V197.199H161.286C161.286 196.83 161.212 196.5 161.064 196.21C160.919 195.92 160.712 195.692 160.442 195.524C160.175 195.357 159.86 195.273 159.496 195.273C159.096 195.273 158.749 195.372 158.456 195.571C158.167 195.767 157.944 196.023 157.787 196.338C157.631 196.653 157.553 196.991 157.553 197.352V197.932C157.553 198.426 157.638 198.845 157.809 199.189C157.982 199.53 158.222 199.79 158.529 199.969C158.836 200.145 159.192 200.233 159.598 200.233C159.863 200.233 160.101 200.196 160.314 200.122C160.53 200.045 160.716 199.932 160.873 199.781C161.029 199.628 161.15 199.437 161.235 199.21L162.206 199.483C162.104 199.812 161.932 200.102 161.691 200.352C161.449 200.599 161.151 200.793 160.796 200.932C160.441 201.068 160.042 201.136 159.598 201.136Z" fill="black"/>
<rect x="10.5" y="299.5" width="579" height="295" fill="#E09898" stroke="#932E2E"/>
<path d="M275.057 322V313.273H278.108C278.716 313.273 279.217 313.378 279.612 313.588C280.007 313.795 280.301 314.075 280.494 314.428C280.688 314.777 280.784 315.165 280.784 315.591C280.784 315.966 280.717 316.276 280.584 316.52C280.453 316.764 280.28 316.957 280.064 317.099C279.851 317.241 279.619 317.347 279.369 317.415V317.5C279.636 317.517 279.905 317.611 280.175 317.781C280.445 317.952 280.67 318.196 280.852 318.514C281.034 318.832 281.125 319.222 281.125 319.682C281.125 320.119 281.026 320.513 280.827 320.862C280.628 321.212 280.314 321.489 279.885 321.693C279.456 321.898 278.898 322 278.21 322H275.057ZM276.114 321.062H278.21C278.901 321.062 279.391 320.929 279.68 320.662C279.973 320.392 280.119 320.065 280.119 319.682C280.119 319.386 280.044 319.114 279.893 318.864C279.743 318.611 279.528 318.409 279.25 318.259C278.972 318.105 278.642 318.028 278.261 318.028H276.114V321.062ZM276.114 317.108H278.074C278.392 317.108 278.679 317.045 278.935 316.92C279.193 316.795 279.398 316.619 279.548 316.392C279.702 316.165 279.778 315.898 279.778 315.591C279.778 315.207 279.645 314.882 279.378 314.615C279.111 314.345 278.688 314.21 278.108 314.21H276.114V317.108ZM284.651 322.153C284.237 322.153 283.86 322.075 283.522 321.919C283.184 321.76 282.915 321.531 282.717 321.233C282.518 320.932 282.418 320.568 282.418 320.142C282.418 319.767 282.492 319.463 282.64 319.23C282.788 318.994 282.985 318.81 283.232 318.676C283.479 318.543 283.752 318.443 284.05 318.378C284.352 318.31 284.654 318.256 284.958 318.216C285.356 318.165 285.678 318.126 285.925 318.101C286.175 318.072 286.357 318.026 286.471 317.96C286.587 317.895 286.646 317.781 286.646 317.619V317.585C286.646 317.165 286.531 316.838 286.3 316.605C286.073 316.372 285.728 316.256 285.265 316.256C284.785 316.256 284.408 316.361 284.136 316.571C283.863 316.781 283.671 317.006 283.56 317.244L282.606 316.903C282.776 316.506 283.004 316.196 283.288 315.974C283.575 315.75 283.887 315.594 284.225 315.506C284.566 315.415 284.901 315.369 285.231 315.369C285.441 315.369 285.683 315.395 285.955 315.446C286.231 315.494 286.496 315.595 286.752 315.749C287.011 315.902 287.225 316.134 287.396 316.443C287.566 316.753 287.651 317.168 287.651 317.688V322H286.646V321.114H286.594C286.526 321.256 286.413 321.408 286.254 321.57C286.094 321.732 285.883 321.869 285.619 321.983C285.354 322.097 285.032 322.153 284.651 322.153ZM284.805 321.25C285.202 321.25 285.538 321.172 285.81 321.016C286.086 320.859 286.293 320.658 286.433 320.411C286.575 320.163 286.646 319.903 286.646 319.631V318.71C286.603 318.761 286.509 318.808 286.364 318.851C286.222 318.891 286.058 318.926 285.87 318.957C285.685 318.986 285.505 319.011 285.329 319.034C285.156 319.054 285.015 319.071 284.907 319.085C284.646 319.119 284.401 319.175 284.174 319.251C283.95 319.325 283.768 319.437 283.629 319.588C283.492 319.736 283.424 319.937 283.424 320.193C283.424 320.543 283.553 320.807 283.812 320.986C284.073 321.162 284.404 321.25 284.805 321.25ZM292.146 322.136C291.532 322.136 291.004 321.991 290.561 321.702C290.118 321.412 289.777 321.013 289.538 320.504C289.299 319.996 289.18 319.415 289.18 318.761C289.18 318.097 289.302 317.51 289.547 317.001C289.794 316.49 290.137 316.091 290.578 315.804C291.021 315.514 291.538 315.369 292.129 315.369C292.589 315.369 293.004 315.455 293.373 315.625C293.743 315.795 294.045 316.034 294.281 316.341C294.517 316.648 294.663 317.006 294.72 317.415H293.714C293.637 317.116 293.467 316.852 293.203 316.622C292.941 316.389 292.589 316.273 292.146 316.273C291.754 316.273 291.41 316.375 291.115 316.58C290.822 316.781 290.593 317.067 290.429 317.436C290.267 317.803 290.186 318.233 290.186 318.727C290.186 319.233 290.265 319.673 290.424 320.048C290.586 320.423 290.814 320.714 291.106 320.922C291.402 321.129 291.748 321.233 292.146 321.233C292.407 321.233 292.645 321.188 292.858 321.097C293.071 321.006 293.251 320.875 293.399 320.705C293.547 320.534 293.652 320.33 293.714 320.091H294.72C294.663 320.477 294.522 320.825 294.298 321.135C294.076 321.442 293.782 321.686 293.416 321.868C293.052 322.047 292.629 322.136 292.146 322.136ZM297.127 319.614L297.11 318.369H297.315L300.179 315.455H301.423L298.372 318.54H298.287L297.127 319.614ZM296.19 322V313.273H297.196V322H296.19ZM300.349 322L297.792 318.761L298.508 318.062L301.627 322H300.349ZM308.837 322.136C308.206 322.136 307.662 321.997 307.205 321.719C306.75 321.438 306.399 321.045 306.152 320.543C305.908 320.037 305.786 319.449 305.786 318.778C305.786 318.108 305.908 317.517 306.152 317.006C306.399 316.491 306.743 316.091 307.183 315.804C307.626 315.514 308.143 315.369 308.734 315.369C309.075 315.369 309.412 315.426 309.744 315.54C310.077 315.653 310.379 315.838 310.652 316.094C310.925 316.347 311.142 316.682 311.304 317.099C311.466 317.517 311.547 318.031 311.547 318.642V319.068H306.501V318.199H310.524C310.524 317.83 310.45 317.5 310.303 317.21C310.158 316.92 309.95 316.692 309.68 316.524C309.413 316.357 309.098 316.273 308.734 316.273C308.334 316.273 307.987 316.372 307.695 316.571C307.405 316.767 307.182 317.023 307.026 317.338C306.869 317.653 306.791 317.991 306.791 318.352V318.932C306.791 319.426 306.876 319.845 307.047 320.189C307.22 320.53 307.46 320.79 307.767 320.969C308.074 321.145 308.43 321.233 308.837 321.233C309.101 321.233 309.339 321.196 309.553 321.122C309.768 321.045 309.955 320.932 310.111 320.781C310.267 320.628 310.388 320.437 310.473 320.21L311.445 320.483C311.342 320.812 311.17 321.102 310.929 321.352C310.688 321.599 310.389 321.793 310.034 321.932C309.679 322.068 309.28 322.136 308.837 322.136ZM314.082 318.062V322H313.077V315.455H314.048V316.477H314.134C314.287 316.145 314.52 315.878 314.832 315.676C315.145 315.472 315.548 315.369 316.043 315.369C316.486 315.369 316.874 315.46 317.206 315.642C317.538 315.821 317.797 316.094 317.982 316.46C318.166 316.824 318.259 317.284 318.259 317.841V322H317.253V317.909C317.253 317.395 317.119 316.994 316.852 316.707C316.585 316.418 316.219 316.273 315.753 316.273C315.432 316.273 315.145 316.342 314.892 316.482C314.642 316.621 314.445 316.824 314.3 317.091C314.155 317.358 314.082 317.682 314.082 318.062ZM322.568 322.136C322.022 322.136 321.541 321.999 321.123 321.723C320.706 321.445 320.379 321.053 320.143 320.547C319.907 320.038 319.789 319.438 319.789 318.744C319.789 318.057 319.907 317.46 320.143 316.955C320.379 316.449 320.707 316.058 321.127 315.783C321.548 315.507 322.034 315.369 322.585 315.369C323.011 315.369 323.348 315.44 323.595 315.582C323.845 315.722 324.035 315.881 324.166 316.06C324.299 316.236 324.403 316.381 324.477 316.494H324.562V313.273H325.568V322H324.596V320.994H324.477C324.403 321.114 324.298 321.264 324.162 321.446C324.025 321.625 323.831 321.786 323.578 321.928C323.325 322.067 322.988 322.136 322.568 322.136ZM322.704 321.233C323.108 321.233 323.449 321.128 323.727 320.918C324.005 320.705 324.217 320.411 324.362 320.036C324.507 319.658 324.579 319.222 324.579 318.727C324.579 318.239 324.508 317.811 324.366 317.445C324.224 317.075 324.014 316.788 323.735 316.584C323.457 316.376 323.113 316.273 322.704 316.273C322.278 316.273 321.923 316.382 321.639 316.601C321.358 316.817 321.146 317.111 321.004 317.483C320.865 317.852 320.795 318.267 320.795 318.727C320.795 319.193 320.866 319.616 321.008 319.997C321.153 320.375 321.366 320.676 321.647 320.901C321.931 321.122 322.284 321.233 322.704 321.233Z" fill="black"/>
<rect x="10.5" y="279.5" width="290" height="21" fill="#E09898" stroke="#932E2E"/>
<rect x="32.5" y="367.5" width="131" height="81" fill="#D9A6F1" stroke="#852099"/>
<rect x="32.5" y="357.5" width="66" height="11" fill="#D9A6F1" stroke="#852099"/>
<path d="M78.0795 406H77.0227C76.9602 405.696 76.8509 405.429 76.6946 405.199C76.5412 404.969 76.3537 404.776 76.1321 404.619C75.9134 404.46 75.6705 404.341 75.4034 404.261C75.1364 404.182 74.858 404.142 74.5682 404.142C74.0398 404.142 73.5611 404.276 73.1321 404.543C72.706 404.81 72.3665 405.203 72.1136 405.723C71.8636 406.243 71.7386 406.881 71.7386 407.636C71.7386 408.392 71.8636 409.03 72.1136 409.55C72.3665 410.07 72.706 410.463 73.1321 410.73C73.5611 410.997 74.0398 411.131 74.5682 411.131C74.858 411.131 75.1364 411.091 75.4034 411.011C75.6705 410.932 75.9134 410.814 76.1321 410.658C76.3537 410.499 76.5412 410.304 76.6946 410.074C76.8509 409.841 76.9602 409.574 77.0227 409.273H78.0795C78 409.719 77.8551 410.118 77.6449 410.47C77.4347 410.822 77.1733 411.122 76.8608 411.369C76.5483 411.614 76.1974 411.8 75.8082 411.928C75.4219 412.055 75.0085 412.119 74.5682 412.119C73.8239 412.119 73.1619 411.938 72.5824 411.574C72.0028 411.21 71.5469 410.693 71.2145 410.023C70.8821 409.352 70.7159 408.557 70.7159 407.636C70.7159 406.716 70.8821 405.92 71.2145 405.25C71.5469 404.58 72.0028 404.062 72.5824 403.699C73.1619 403.335 73.8239 403.153 74.5682 403.153C75.0085 403.153 75.4219 403.217 75.8082 403.345C76.1974 403.473 76.5483 403.661 76.8608 403.908C77.1733 404.152 77.4347 404.45 77.6449 404.803C77.8551 405.152 78 405.551 78.0795 406ZM82.31 412.136C81.7191 412.136 81.2006 411.996 80.7546 411.714C80.3114 411.433 79.9648 411.04 79.7148 410.534C79.4677 410.028 79.3441 409.437 79.3441 408.761C79.3441 408.08 79.4677 407.484 79.7148 406.976C79.9648 406.467 80.3114 406.072 80.7546 405.791C81.2006 405.51 81.7191 405.369 82.31 405.369C82.9009 405.369 83.418 405.51 83.8612 405.791C84.3072 406.072 84.6538 406.467 84.9009 406.976C85.1509 407.484 85.2759 408.08 85.2759 408.761C85.2759 409.437 85.1509 410.028 84.9009 410.534C84.6538 411.04 84.3072 411.433 83.8612 411.714C83.418 411.996 82.9009 412.136 82.31 412.136ZM82.31 411.233C82.7589 411.233 83.1282 411.118 83.418 410.888C83.7077 410.658 83.9222 410.355 84.0614 409.98C84.2006 409.605 84.2702 409.199 84.2702 408.761C84.2702 408.324 84.2006 407.916 84.0614 407.538C83.9222 407.161 83.7077 406.855 83.418 406.622C83.1282 406.389 82.7589 406.273 82.31 406.273C81.8612 406.273 81.4918 406.389 81.2021 406.622C80.9123 406.855 80.6978 407.161 80.5586 407.538C80.4194 407.916 80.3498 408.324 80.3498 408.761C80.3498 409.199 80.4194 409.605 80.5586 409.98C80.6978 410.355 80.9123 410.658 81.2021 410.888C81.4918 411.118 81.8612 411.233 82.31 411.233ZM87.8168 408.062V412H86.8111V405.455H87.7827V406.477H87.8679C88.0213 406.145 88.2543 405.878 88.5668 405.676C88.8793 405.472 89.2827 405.369 89.777 405.369C90.2202 405.369 90.608 405.46 90.9403 405.642C91.2727 405.821 91.5313 406.094 91.7159 406.46C91.9006 406.824 91.9929 407.284 91.9929 407.841V412H90.9872V407.909C90.9872 407.395 90.8537 406.994 90.5866 406.707C90.3196 406.418 89.9531 406.273 89.4872 406.273C89.1662 406.273 88.8793 406.342 88.6264 406.482C88.3764 406.621 88.179 406.824 88.0341 407.091C87.8892 407.358 87.8168 407.682 87.8168 408.062ZM96.6772 405.455V406.307H93.2852V405.455H96.6772ZM94.2738 403.886H95.2795V410.125C95.2795 410.409 95.3207 410.622 95.4031 410.764C95.4883 410.903 95.5962 410.997 95.7269 411.045C95.8604 411.091 96.0011 411.114 96.1488 411.114C96.2596 411.114 96.3505 411.108 96.4215 411.097C96.4925 411.082 96.5494 411.071 96.592 411.062L96.7965 411.966C96.7283 411.991 96.6332 412.017 96.511 412.043C96.3888 412.071 96.234 412.085 96.0465 412.085C95.7624 412.085 95.484 412.024 95.2113 411.902C94.9414 411.78 94.717 411.594 94.538 411.344C94.3619 411.094 94.2738 410.778 94.2738 410.398V403.886ZM98.19 412V405.455H99.1616V406.443H99.2298C99.3491 406.119 99.565 405.857 99.8775 405.655C100.19 405.453 100.542 405.352 100.934 405.352C101.008 405.352 101.1 405.354 101.211 405.357C101.322 405.359 101.406 405.364 101.463 405.369V406.392C101.429 406.384 101.35 406.371 101.228 406.354C101.109 406.334 100.983 406.324 100.849 406.324C100.531 406.324 100.247 406.391 99.9968 406.524C99.7496 406.655 99.5536 406.837 99.4087 407.07C99.2667 407.3 99.1957 407.562 99.1957 407.858V412H98.19ZM105.115 412.136C104.524 412.136 104.005 411.996 103.559 411.714C103.116 411.433 102.77 411.04 102.52 410.534C102.272 410.028 102.149 409.437 102.149 408.761C102.149 408.08 102.272 407.484 102.52 406.976C102.77 406.467 103.116 406.072 103.559 405.791C104.005 405.51 104.524 405.369 105.115 405.369C105.706 405.369 106.223 405.51 106.666 405.791C107.112 406.072 107.458 406.467 107.706 406.976C107.956 407.484 108.081 408.08 108.081 408.761C108.081 409.437 107.956 410.028 107.706 410.534C107.458 411.04 107.112 411.433 106.666 411.714C106.223 411.996 105.706 412.136 105.115 412.136ZM105.115 411.233C105.564 411.233 105.933 411.118 106.223 410.888C106.512 410.658 106.727 410.355 106.866 409.98C107.005 409.605 107.075 409.199 107.075 408.761C107.075 408.324 107.005 407.916 106.866 407.538C106.727 407.161 106.512 406.855 106.223 406.622C105.933 406.389 105.564 406.273 105.115 406.273C104.666 406.273 104.297 406.389 104.007 406.622C103.717 406.855 103.502 407.161 103.363 407.538C103.224 407.916 103.154 408.324 103.154 408.761C103.154 409.199 103.224 409.605 103.363 409.98C103.502 410.355 103.717 410.658 104.007 410.888C104.297 411.118 104.666 411.233 105.115 411.233ZM110.621 403.273V412H109.616V403.273H110.621ZM113.469 403.273V412H112.463V403.273H113.469ZM118.055 412.136C117.425 412.136 116.881 411.997 116.423 411.719C115.969 411.438 115.618 411.045 115.371 410.543C115.126 410.037 115.004 409.449 115.004 408.778C115.004 408.108 115.126 407.517 115.371 407.006C115.618 406.491 115.962 406.091 116.402 405.804C116.845 405.514 117.362 405.369 117.953 405.369C118.294 405.369 118.631 405.426 118.963 405.54C119.295 405.653 119.598 405.838 119.871 406.094C120.143 406.347 120.361 406.682 120.523 407.099C120.685 407.517 120.766 408.031 120.766 408.642V409.068H115.72V408.199H119.743C119.743 407.83 119.669 407.5 119.521 407.21C119.376 406.92 119.169 406.692 118.899 406.524C118.632 406.357 118.317 406.273 117.953 406.273C117.553 406.273 117.206 406.372 116.913 406.571C116.624 406.767 116.401 407.023 116.244 407.338C116.088 407.653 116.01 407.991 116.01 408.352V408.932C116.01 409.426 116.095 409.845 116.266 410.189C116.439 410.53 116.679 410.79 116.986 410.969C117.293 411.145 117.649 411.233 118.055 411.233C118.32 411.233 118.558 411.196 118.771 411.122C118.987 411.045 119.173 410.932 119.33 410.781C119.486 410.628 119.607 410.437 119.692 410.21L120.663 410.483C120.561 410.812 120.389 411.102 120.148 411.352C119.906 411.599 119.608 411.793 119.253 411.932C118.898 412.068 118.499 412.136 118.055 412.136ZM122.295 412V405.455H123.267V406.443H123.335C123.455 406.119 123.67 405.857 123.983 405.655C124.295 405.453 124.648 405.352 125.04 405.352C125.114 405.352 125.206 405.354 125.317 405.357C125.428 405.359 125.511 405.364 125.568 405.369V406.392C125.534 406.384 125.456 406.371 125.334 406.354C125.214 406.334 125.088 406.324 124.955 406.324C124.636 406.324 124.352 406.391 124.102 406.524C123.855 406.655 123.659 406.837 123.514 407.07C123.372 407.3 123.301 407.562 123.301 407.858V412H122.295Z" fill="black"/>
<rect x="32.5" y="492.5" width="131" height="81" fill="#B8E0EE" stroke="#066E9A"/>
<rect x="32.5" y="482.5" width="66" height="11" fill="#B8E0EE" stroke="#066E9A"/>
<path d="M73.75 537H71.0568V528.273H73.8693C74.7159 528.273 75.4403 528.447 76.0426 528.797C76.6449 529.143 77.1065 529.642 77.4276 530.293C77.7486 530.94 77.9091 531.716 77.9091 532.619C77.9091 533.528 77.7472 534.311 77.4233 534.967C77.0994 535.621 76.6278 536.124 76.0085 536.476C75.3892 536.825 74.6364 537 73.75 537ZM72.1136 536.062H73.6818C74.4034 536.062 75.0014 535.923 75.4759 535.645C75.9503 535.366 76.304 534.97 76.5369 534.456C76.7699 533.942 76.8864 533.33 76.8864 532.619C76.8864 531.915 76.7713 531.308 76.5412 530.8C76.3111 530.288 75.9673 529.896 75.5099 529.624C75.0526 529.348 74.483 529.21 73.8011 529.21H72.1136V536.062ZM81.4716 537.153C81.0568 537.153 80.6804 537.075 80.3423 536.919C80.0043 536.76 79.7358 536.531 79.5369 536.233C79.3381 535.932 79.2386 535.568 79.2386 535.142C79.2386 534.767 79.3125 534.463 79.4602 534.23C79.608 533.994 79.8054 533.81 80.0526 533.676C80.2997 533.543 80.5724 533.443 80.8707 533.378C81.1719 533.31 81.4744 533.256 81.7784 533.216C82.1761 533.165 82.4986 533.126 82.7457 533.101C82.9957 533.072 83.1776 533.026 83.2912 532.96C83.4077 532.895 83.4659 532.781 83.4659 532.619V532.585C83.4659 532.165 83.3509 531.838 83.1207 531.605C82.8935 531.372 82.5483 531.256 82.0852 531.256C81.6051 531.256 81.2287 531.361 80.956 531.571C80.6832 531.781 80.4915 532.006 80.3807 532.244L79.4261 531.903C79.5966 531.506 79.8239 531.196 80.108 530.974C80.3949 530.75 80.7074 530.594 81.0455 530.506C81.3864 530.415 81.7216 530.369 82.0511 530.369C82.2614 530.369 82.5028 530.395 82.7756 530.446C83.0511 530.494 83.3168 530.595 83.5724 530.749C83.831 530.902 84.0455 531.134 84.2159 531.443C84.3864 531.753 84.4716 532.168 84.4716 532.688V537H83.4659V536.114H83.4148C83.3466 536.256 83.233 536.408 83.0739 536.57C82.9148 536.732 82.7031 536.869 82.4389 536.983C82.1747 537.097 81.8523 537.153 81.4716 537.153ZM81.625 536.25C82.0227 536.25 82.358 536.172 82.6307 536.016C82.9063 535.859 83.1136 535.658 83.2528 535.411C83.3949 535.163 83.4659 534.903 83.4659 534.631V533.71C83.4233 533.761 83.3295 533.808 83.1847 533.851C83.0426 533.891 82.8778 533.926 82.6903 533.957C82.5057 533.986 82.3253 534.011 82.1491 534.034C81.9759 534.054 81.8352 534.071 81.7273 534.085C81.4659 534.119 81.2216 534.175 80.9943 534.251C80.7699 534.325 80.5881 534.437 80.4489 534.588C80.3125 534.736 80.2443 534.937 80.2443 535.193C80.2443 535.543 80.3736 535.807 80.6321 535.986C80.8935 536.162 81.2244 536.25 81.625 536.25ZM89.1538 530.455V531.307H85.7617V530.455H89.1538ZM86.7504 528.886H87.756V535.125C87.756 535.409 87.7972 535.622 87.8796 535.764C87.9648 535.903 88.0728 535.997 88.2035 536.045C88.337 536.091 88.4776 536.114 88.6254 536.114C88.7362 536.114 88.8271 536.108 88.8981 536.097C88.9691 536.082 89.0259 536.071 89.0685 536.062L89.2731 536.966C89.2049 536.991 89.1097 537.017 88.9876 537.043C88.8654 537.071 88.7106 537.085 88.5231 537.085C88.239 537.085 87.9606 537.024 87.6879 536.902C87.418 536.78 87.1935 536.594 87.0146 536.344C86.8384 536.094 86.7504 535.778 86.7504 535.398V528.886ZM92.5927 537.153C92.1779 537.153 91.8015 537.075 91.4634 536.919C91.1254 536.76 90.8569 536.531 90.658 536.233C90.4592 535.932 90.3597 535.568 90.3597 535.142C90.3597 534.767 90.4336 534.463 90.5813 534.23C90.729 533.994 90.9265 533.81 91.1737 533.676C91.4208 533.543 91.6935 533.443 91.9918 533.378C92.293 533.31 92.5955 533.256 92.8995 533.216C93.2972 533.165 93.6197 533.126 93.8668 533.101C94.1168 533.072 94.2987 533.026 94.4123 532.96C94.5288 532.895 94.587 532.781 94.587 532.619V532.585C94.587 532.165 94.4719 531.838 94.2418 531.605C94.0146 531.372 93.6694 531.256 93.2063 531.256C92.7262 531.256 92.3498 531.361 92.0771 531.571C91.8043 531.781 91.6126 532.006 91.5018 532.244L90.5472 531.903C90.7177 531.506 90.945 531.196 91.229 530.974C91.516 530.75 91.8285 530.594 92.1665 530.506C92.5075 530.415 92.8427 530.369 93.1722 530.369C93.3825 530.369 93.6239 530.395 93.8967 530.446C94.1722 530.494 94.4379 530.595 94.6935 530.749C94.9521 530.902 95.1665 531.134 95.337 531.443C95.5075 531.753 95.5927 532.168 95.5927 532.688V537H94.587V536.114H94.5359C94.4677 536.256 94.354 536.408 94.195 536.57C94.0359 536.732 93.8242 536.869 93.56 536.983C93.2958 537.097 92.9734 537.153 92.5927 537.153ZM92.7461 536.25C93.1438 536.25 93.479 536.172 93.7518 536.016C94.0273 535.859 94.2347 535.658 94.3739 535.411C94.516 535.163 94.587 534.903 94.587 534.631V533.71C94.5444 533.761 94.4506 533.808 94.3058 533.851C94.1637 533.891 93.9989 533.926 93.8114 533.957C93.6268 533.986 93.4464 534.011 93.2702 534.034C93.0969 534.054 92.9563 534.071 92.8484 534.085C92.587 534.119 92.3427 534.175 92.1154 534.251C91.891 534.325 91.7092 534.437 91.57 534.588C91.4336 534.736 91.3654 534.937 91.3654 535.193C91.3654 535.543 91.4947 535.807 91.7532 535.986C92.0146 536.162 92.3455 536.25 92.7461 536.25ZM97.5646 537V528.273H98.5703V531.494H98.6555C98.7294 531.381 98.8317 531.236 98.9624 531.06C99.0959 530.881 99.2862 530.722 99.5334 530.582C99.7834 530.44 100.121 530.369 100.548 530.369C101.099 530.369 101.585 530.507 102.005 530.783C102.425 531.058 102.754 531.449 102.989 531.955C103.225 532.46 103.343 533.057 103.343 533.744C103.343 534.438 103.225 535.038 102.989 535.547C102.754 536.053 102.427 536.445 102.009 536.723C101.592 536.999 101.11 537.136 100.565 537.136C100.144 537.136 99.8075 537.067 99.5547 536.928C99.3018 536.786 99.1072 536.625 98.9709 536.446C98.8345 536.264 98.7294 536.114 98.6555 535.994H98.5362V537H97.5646ZM98.5533 533.727C98.5533 534.222 98.6257 534.658 98.7706 535.036C98.9155 535.411 99.1271 535.705 99.4055 535.918C99.6839 536.128 100.025 536.233 100.428 536.233C100.849 536.233 101.2 536.122 101.481 535.901C101.765 535.676 101.978 535.375 102.12 534.997C102.265 534.616 102.337 534.193 102.337 533.727C102.337 533.267 102.266 532.852 102.124 532.483C101.985 532.111 101.773 531.817 101.489 531.601C101.208 531.382 100.854 531.273 100.428 531.273C100.019 531.273 99.6754 531.376 99.397 531.584C99.1186 531.788 98.9084 532.075 98.7663 532.445C98.6243 532.811 98.5533 533.239 98.5533 533.727ZM106.808 537.153C106.393 537.153 106.016 537.075 105.678 536.919C105.34 536.76 105.072 536.531 104.873 536.233C104.674 535.932 104.575 535.568 104.575 535.142C104.575 534.767 104.648 534.463 104.796 534.23C104.944 533.994 105.141 533.81 105.388 533.676C105.636 533.543 105.908 533.443 106.207 533.378C106.508 533.31 106.81 533.256 107.114 533.216C107.512 533.165 107.835 533.126 108.082 533.101C108.332 533.072 108.513 533.026 108.627 532.96C108.744 532.895 108.802 532.781 108.802 532.619V532.585C108.802 532.165 108.687 531.838 108.457 531.605C108.229 531.372 107.884 531.256 107.421 531.256C106.941 531.256 106.565 531.361 106.292 531.571C106.019 531.781 105.827 532.006 105.717 532.244L104.762 531.903C104.933 531.506 105.16 531.196 105.444 530.974C105.731 530.75 106.043 530.594 106.381 530.506C106.722 530.415 107.058 530.369 107.387 530.369C107.597 530.369 107.839 530.395 108.112 530.446C108.387 530.494 108.653 530.595 108.908 530.749C109.167 530.902 109.381 531.134 109.552 531.443C109.722 531.753 109.808 532.168 109.808 532.688V537H108.802V536.114H108.751C108.683 536.256 108.569 536.408 108.41 536.57C108.251 536.732 108.039 536.869 107.775 536.983C107.511 537.097 107.188 537.153 106.808 537.153ZM106.961 536.25C107.359 536.25 107.694 536.172 107.967 536.016C108.242 535.859 108.45 535.658 108.589 535.411C108.731 535.163 108.802 534.903 108.802 534.631V533.71C108.759 533.761 108.665 533.808 108.521 533.851C108.379 533.891 108.214 533.926 108.026 533.957C107.842 533.986 107.661 534.011 107.485 534.034C107.312 534.054 107.171 534.071 107.063 534.085C106.802 534.119 106.558 534.175 106.33 534.251C106.106 534.325 105.924 534.437 105.785 534.588C105.648 534.736 105.58 534.937 105.58 535.193C105.58 535.543 105.71 535.807 105.968 535.986C106.229 536.162 106.56 536.25 106.961 536.25ZM116.279 531.92L115.376 532.176C115.319 532.026 115.235 531.879 115.125 531.737C115.017 531.592 114.869 531.473 114.681 531.379C114.494 531.286 114.254 531.239 113.961 531.239C113.561 531.239 113.227 531.331 112.96 531.516C112.696 531.697 112.564 531.929 112.564 532.21C112.564 532.46 112.654 532.658 112.836 532.803C113.018 532.947 113.302 533.068 113.689 533.165L114.66 533.403C115.245 533.545 115.681 533.763 115.968 534.055C116.255 534.345 116.399 534.719 116.399 535.176C116.399 535.551 116.291 535.886 116.075 536.182C115.862 536.477 115.564 536.71 115.18 536.881C114.797 537.051 114.35 537.136 113.842 537.136C113.174 537.136 112.622 536.991 112.184 536.702C111.747 536.412 111.47 535.989 111.353 535.432L112.308 535.193C112.399 535.545 112.571 535.81 112.824 535.986C113.079 536.162 113.413 536.25 113.825 536.25C114.294 536.25 114.666 536.151 114.941 535.952C115.22 535.75 115.359 535.509 115.359 535.227C115.359 535 115.279 534.81 115.12 534.656C114.961 534.5 114.717 534.384 114.387 534.307L113.297 534.051C112.697 533.909 112.257 533.689 111.975 533.391C111.697 533.089 111.558 532.713 111.558 532.261C111.558 531.892 111.662 531.565 111.869 531.281C112.079 530.997 112.365 530.774 112.725 530.612C113.089 530.45 113.501 530.369 113.961 530.369C114.609 530.369 115.118 530.511 115.487 530.795C115.859 531.08 116.123 531.455 116.279 531.92ZM120.657 537.136C120.026 537.136 119.482 536.997 119.025 536.719C118.57 536.438 118.219 536.045 117.972 535.543C117.728 535.037 117.606 534.449 117.606 533.778C117.606 533.108 117.728 532.517 117.972 532.006C118.219 531.491 118.563 531.091 119.004 530.804C119.447 530.514 119.964 530.369 120.555 530.369C120.896 530.369 121.232 530.426 121.565 530.54C121.897 530.653 122.2 530.838 122.472 531.094C122.745 531.347 122.962 531.682 123.124 532.099C123.286 532.517 123.367 533.031 123.367 533.642V534.068H118.322V533.199H122.344C122.344 532.83 122.271 532.5 122.123 532.21C121.978 531.92 121.771 531.692 121.501 531.524C121.234 531.357 120.918 531.273 120.555 531.273C120.154 531.273 119.808 531.372 119.515 531.571C119.225 531.767 119.002 532.023 118.846 532.338C118.69 532.653 118.612 532.991 118.612 533.352V533.932C118.612 534.426 118.697 534.845 118.867 535.189C119.04 535.53 119.281 535.79 119.587 535.969C119.894 536.145 120.251 536.233 120.657 536.233C120.921 536.233 121.16 536.196 121.373 536.122C121.589 536.045 121.775 535.932 121.931 535.781C122.087 535.628 122.208 535.437 122.293 535.21L123.265 535.483C123.163 535.812 122.991 536.102 122.749 536.352C122.508 536.599 122.21 536.793 121.854 536.932C121.499 537.068 121.1 537.136 120.657 537.136Z" fill="black"/>
<rect x="219.5" y="354.278" width="345" height="223" fill="#B8E0EE" stroke="#066E9A"/>
<rect x="219.5" y="334.5" width="173" height="21" fill="#B8E0EE" stroke="#066E9A"/>
<path d="M374.057 368.273H375.318L378.284 375.517H378.386L381.352 368.273H382.614V377H381.625V370.369H381.54L378.812 377H377.858L375.131 370.369H375.045V377H374.057V368.273ZM387.255 377.136C386.664 377.136 386.146 376.996 385.7 376.714C385.257 376.433 384.91 376.04 384.66 375.534C384.413 375.028 384.289 374.437 384.289 373.761C384.289 373.08 384.413 372.484 384.66 371.976C384.91 371.467 385.257 371.072 385.7 370.791C386.146 370.51 386.664 370.369 387.255 370.369C387.846 370.369 388.363 370.51 388.806 370.791C389.252 371.072 389.599 371.467 389.846 371.976C390.096 372.484 390.221 373.08 390.221 373.761C390.221 374.437 390.096 375.028 389.846 375.534C389.599 376.04 389.252 376.433 388.806 376.714C388.363 376.996 387.846 377.136 387.255 377.136ZM387.255 376.233C387.704 376.233 388.074 376.118 388.363 375.888C388.653 375.658 388.868 375.355 389.007 374.98C389.146 374.605 389.216 374.199 389.216 373.761C389.216 373.324 389.146 372.916 389.007 372.538C388.868 372.161 388.653 371.855 388.363 371.622C388.074 371.389 387.704 371.273 387.255 371.273C386.806 371.273 386.437 371.389 386.147 371.622C385.858 371.855 385.643 372.161 385.504 372.538C385.365 372.916 385.295 373.324 385.295 373.761C385.295 374.199 385.365 374.605 385.504 374.98C385.643 375.355 385.858 375.658 386.147 375.888C386.437 376.118 386.806 376.233 387.255 376.233ZM394.228 377.136C393.683 377.136 393.201 376.999 392.783 376.723C392.366 376.445 392.039 376.053 391.803 375.547C391.567 375.038 391.45 374.438 391.45 373.744C391.45 373.057 391.567 372.46 391.803 371.955C392.039 371.449 392.367 371.058 392.788 370.783C393.208 370.507 393.694 370.369 394.245 370.369C394.671 370.369 395.008 370.44 395.255 370.582C395.505 370.722 395.695 370.881 395.826 371.06C395.96 371.236 396.063 371.381 396.137 371.494H396.222V368.273H397.228V377H396.256V375.994H396.137C396.063 376.114 395.958 376.264 395.822 376.446C395.685 376.625 395.491 376.786 395.238 376.928C394.985 377.067 394.648 377.136 394.228 377.136ZM394.364 376.233C394.768 376.233 395.109 376.128 395.387 375.918C395.665 375.705 395.877 375.411 396.022 375.036C396.167 374.658 396.239 374.222 396.239 373.727C396.239 373.239 396.168 372.811 396.026 372.445C395.884 372.075 395.674 371.788 395.396 371.584C395.117 371.376 394.773 371.273 394.364 371.273C393.938 371.273 393.583 371.382 393.299 371.601C393.018 371.817 392.806 372.111 392.664 372.483C392.525 372.852 392.455 373.267 392.455 373.727C392.455 374.193 392.526 374.616 392.668 374.997C392.813 375.375 393.026 375.676 393.308 375.901C393.592 376.122 393.944 376.233 394.364 376.233ZM401.954 377.136C401.323 377.136 400.779 376.997 400.322 376.719C399.867 376.438 399.516 376.045 399.269 375.543C399.025 375.037 398.903 374.449 398.903 373.778C398.903 373.108 399.025 372.517 399.269 372.006C399.516 371.491 399.86 371.091 400.3 370.804C400.744 370.514 401.261 370.369 401.852 370.369C402.192 370.369 402.529 370.426 402.862 370.54C403.194 370.653 403.496 370.838 403.769 371.094C404.042 371.347 404.259 371.682 404.421 372.099C404.583 372.517 404.664 373.031 404.664 373.642V374.068H399.619V373.199H403.641C403.641 372.83 403.567 372.5 403.42 372.21C403.275 371.92 403.067 371.692 402.798 371.524C402.531 371.357 402.215 371.273 401.852 371.273C401.451 371.273 401.104 371.372 400.812 371.571C400.522 371.767 400.299 372.023 400.143 372.338C399.987 372.653 399.908 372.991 399.908 373.352V373.932C399.908 374.426 399.994 374.845 400.164 375.189C400.337 375.53 400.577 375.79 400.884 375.969C401.191 376.145 401.548 376.233 401.954 376.233C402.218 376.233 402.457 376.196 402.67 376.122C402.886 376.045 403.072 375.932 403.228 375.781C403.384 375.628 403.505 375.437 403.59 375.21L404.562 375.483C404.46 375.812 404.288 376.102 404.046 376.352C403.805 376.599 403.506 376.793 403.151 376.932C402.796 377.068 402.397 377.136 401.954 377.136ZM407.2 368.273V377H406.194V368.273H407.2Z" fill="black"/>
<rect x="234.5" y="399.5" width="101" height="51" fill="#D9A6F1" stroke="#852099"/>
<rect x="234.5" y="389.5" width="51" height="11" fill="#D9A6F1" stroke="#852099"/>
<path d="M278.784 420.273H279.841V426.051C279.841 426.648 279.7 427.18 279.419 427.649C279.141 428.115 278.747 428.483 278.239 428.753C277.73 429.02 277.134 429.153 276.449 429.153C275.764 429.153 275.168 429.02 274.659 428.753C274.151 428.483 273.756 428.115 273.474 427.649C273.196 427.18 273.057 426.648 273.057 426.051V420.273H274.114V425.966C274.114 426.392 274.207 426.771 274.395 427.104C274.582 427.433 274.849 427.693 275.196 427.884C275.545 428.071 275.963 428.165 276.449 428.165C276.935 428.165 277.352 428.071 277.702 427.884C278.051 427.693 278.318 427.433 278.503 427.104C278.69 426.771 278.784 426.392 278.784 425.966V420.273ZM286.451 423.92L285.548 424.176C285.491 424.026 285.407 423.879 285.297 423.737C285.189 423.592 285.041 423.473 284.853 423.379C284.666 423.286 284.426 423.239 284.133 423.239C283.733 423.239 283.399 423.331 283.132 423.516C282.868 423.697 282.735 423.929 282.735 424.21C282.735 424.46 282.826 424.658 283.008 424.803C283.19 424.947 283.474 425.068 283.86 425.165L284.832 425.403C285.417 425.545 285.853 425.763 286.14 426.055C286.427 426.345 286.571 426.719 286.571 427.176C286.571 427.551 286.463 427.886 286.247 428.182C286.034 428.477 285.735 428.71 285.352 428.881C284.968 429.051 284.522 429.136 284.014 429.136C283.346 429.136 282.794 428.991 282.356 428.702C281.919 428.412 281.642 427.989 281.525 427.432L282.48 427.193C282.571 427.545 282.743 427.81 282.995 427.986C283.251 428.162 283.585 428.25 283.997 428.25C284.466 428.25 284.838 428.151 285.113 427.952C285.392 427.75 285.531 427.509 285.531 427.227C285.531 427 285.451 426.81 285.292 426.656C285.133 426.5 284.889 426.384 284.559 426.307L283.468 426.051C282.869 425.909 282.429 425.689 282.147 425.391C281.869 425.089 281.73 424.713 281.73 424.261C281.73 423.892 281.833 423.565 282.041 423.281C282.251 422.997 282.537 422.774 282.897 422.612C283.261 422.45 283.673 422.369 284.133 422.369C284.781 422.369 285.289 422.511 285.659 422.795C286.031 423.08 286.295 423.455 286.451 423.92ZM290.829 429.136C290.198 429.136 289.654 428.997 289.197 428.719C288.742 428.438 288.391 428.045 288.144 427.543C287.9 427.037 287.778 426.449 287.778 425.778C287.778 425.108 287.9 424.517 288.144 424.006C288.391 423.491 288.735 423.091 289.175 422.804C289.619 422.514 290.136 422.369 290.727 422.369C291.067 422.369 291.404 422.426 291.737 422.54C292.069 422.653 292.371 422.838 292.644 423.094C292.917 423.347 293.134 423.682 293.296 424.099C293.458 424.517 293.539 425.031 293.539 425.642V426.068H288.494V425.199H292.516C292.516 424.83 292.442 424.5 292.295 424.21C292.15 423.92 291.942 423.692 291.673 423.524C291.406 423.357 291.09 423.273 290.727 423.273C290.326 423.273 289.979 423.372 289.687 423.571C289.397 423.767 289.174 424.023 289.018 424.338C288.862 424.653 288.783 424.991 288.783 425.352V425.932C288.783 426.426 288.869 426.845 289.039 427.189C289.212 427.53 289.452 427.79 289.759 427.969C290.066 428.145 290.423 428.233 290.829 428.233C291.093 428.233 291.332 428.196 291.545 428.122C291.761 428.045 291.947 427.932 292.103 427.781C292.259 427.628 292.38 427.437 292.465 427.21L293.437 427.483C293.335 427.812 293.163 428.102 292.921 428.352C292.68 428.599 292.381 428.793 292.026 428.932C291.671 429.068 291.272 429.136 290.829 429.136ZM295.069 429V422.455H296.04V423.443H296.109C296.228 423.119 296.444 422.857 296.756 422.655C297.069 422.453 297.421 422.352 297.813 422.352C297.887 422.352 297.979 422.354 298.09 422.357C298.201 422.359 298.285 422.364 298.342 422.369V423.392C298.308 423.384 298.229 423.371 298.107 423.354C297.988 423.334 297.862 423.324 297.728 423.324C297.41 423.324 297.126 423.391 296.876 423.524C296.629 423.655 296.433 423.837 296.288 424.07C296.146 424.3 296.075 424.562 296.075 424.858V429H295.069Z" fill="black"/>
<rect x="445.5" y="399.5" width="101" height="51" fill="#D9A6F1" stroke="#852099"/>
<rect x="445.5" y="389.5" width="51" height="11" fill="#D9A6F1" stroke="#852099"/>
<path d="M491.415 429H490.307L493.511 420.273H494.602L497.807 429H496.699L494.091 421.653H494.023L491.415 429ZM491.824 425.591H496.29V426.528H491.824V425.591ZM500.223 420.273V429H499.166V420.273H500.223Z" fill="black"/>
<rect x="234.5" y="488.5" width="101" height="51" fill="#D9A6F1" stroke="#852099"/>
<rect x="234.5" y="478.5" width="51" height="11" fill="#D9A6F1" stroke="#852099"/>
<path d="M264.057 518V509.273H267.006C267.69 509.273 268.25 509.396 268.685 509.643C269.122 509.888 269.446 510.219 269.656 510.636C269.866 511.054 269.972 511.52 269.972 512.034C269.972 512.548 269.866 513.016 269.656 513.436C269.449 513.857 269.128 514.192 268.693 514.442C268.259 514.689 267.702 514.812 267.023 514.812H264.909V513.875H266.989C267.457 513.875 267.834 513.794 268.118 513.632C268.402 513.47 268.608 513.251 268.736 512.976C268.866 512.697 268.932 512.384 268.932 512.034C268.932 511.685 268.866 511.372 268.736 511.097C268.608 510.821 268.401 510.605 268.114 510.449C267.827 510.29 267.446 510.21 266.972 510.21H265.114V518H264.057ZM271.538 518V511.455H272.509V512.443H272.577C272.697 512.119 272.913 511.857 273.225 511.655C273.538 511.453 273.89 511.352 274.282 511.352C274.356 511.352 274.448 511.354 274.559 511.357C274.67 511.359 274.754 511.364 274.81 511.369V512.392C274.776 512.384 274.698 512.371 274.576 512.354C274.457 512.334 274.33 512.324 274.197 512.324C273.879 512.324 273.594 512.391 273.344 512.524C273.097 512.655 272.901 512.837 272.756 513.07C272.614 513.3 272.543 513.562 272.543 513.858V518H271.538ZM278.462 518.136C277.871 518.136 277.353 517.996 276.907 517.714C276.464 517.433 276.117 517.04 275.867 516.534C275.62 516.028 275.496 515.437 275.496 514.761C275.496 514.08 275.62 513.484 275.867 512.976C276.117 512.467 276.464 512.072 276.907 511.791C277.353 511.51 277.871 511.369 278.462 511.369C279.053 511.369 279.57 511.51 280.013 511.791C280.46 512.072 280.806 512.467 281.053 512.976C281.303 513.484 281.428 514.08 281.428 514.761C281.428 515.437 281.303 516.028 281.053 516.534C280.806 517.04 280.46 517.433 280.013 517.714C279.57 517.996 279.053 518.136 278.462 518.136ZM278.462 517.233C278.911 517.233 279.281 517.118 279.57 516.888C279.86 516.658 280.075 516.355 280.214 515.98C280.353 515.605 280.423 515.199 280.423 514.761C280.423 514.324 280.353 513.916 280.214 513.538C280.075 513.161 279.86 512.855 279.57 512.622C279.281 512.389 278.911 512.273 278.462 512.273C278.013 512.273 277.644 512.389 277.354 512.622C277.065 512.855 276.85 513.161 276.711 513.538C276.572 513.916 276.502 514.324 276.502 514.761C276.502 515.199 276.572 515.605 276.711 515.98C276.85 516.355 277.065 516.658 277.354 516.888C277.644 517.118 278.013 517.233 278.462 517.233ZM285.435 518.136C284.89 518.136 284.408 517.999 283.99 517.723C283.573 517.445 283.246 517.053 283.01 516.547C282.775 516.038 282.657 515.438 282.657 514.744C282.657 514.057 282.775 513.46 283.01 512.955C283.246 512.449 283.574 512.058 283.995 511.783C284.415 511.507 284.901 511.369 285.452 511.369C285.878 511.369 286.215 511.44 286.462 511.582C286.712 511.722 286.902 511.881 287.033 512.06C287.167 512.236 287.27 512.381 287.344 512.494H287.429V509.273H288.435V518H287.463V516.994H287.344C287.27 517.114 287.165 517.264 287.029 517.446C286.892 517.625 286.698 517.786 286.445 517.928C286.192 518.067 285.855 518.136 285.435 518.136ZM285.571 517.233C285.975 517.233 286.316 517.128 286.594 516.918C286.873 516.705 287.084 516.411 287.229 516.036C287.374 515.658 287.446 515.222 287.446 514.727C287.446 514.239 287.375 513.811 287.233 513.445C287.091 513.075 286.881 512.788 286.603 512.584C286.324 512.376 285.98 512.273 285.571 512.273C285.145 512.273 284.79 512.382 284.506 512.601C284.225 512.817 284.013 513.111 283.871 513.483C283.732 513.852 283.662 514.267 283.662 514.727C283.662 515.193 283.733 515.616 283.875 515.997C284.02 516.375 284.233 516.676 284.515 516.901C284.799 517.122 285.151 517.233 285.571 517.233ZM294.542 515.324V511.455H295.547V518H294.542V516.892H294.473C294.32 517.224 294.081 517.507 293.757 517.74C293.434 517.97 293.025 518.085 292.53 518.085C292.121 518.085 291.757 517.996 291.439 517.817C291.121 517.635 290.871 517.362 290.689 516.999C290.507 516.632 290.417 516.17 290.417 515.614V511.455H291.422V515.545C291.422 516.023 291.556 516.403 291.823 516.688C292.093 516.972 292.436 517.114 292.854 517.114C293.104 517.114 293.358 517.05 293.617 516.922C293.878 516.794 294.097 516.598 294.273 516.334C294.452 516.07 294.542 515.733 294.542 515.324ZM300.048 518.136C299.435 518.136 298.906 517.991 298.463 517.702C298.02 517.412 297.679 517.013 297.44 516.504C297.202 515.996 297.082 515.415 297.082 514.761C297.082 514.097 297.205 513.51 297.449 513.001C297.696 512.49 298.04 512.091 298.48 511.804C298.923 511.514 299.44 511.369 300.031 511.369C300.491 511.369 300.906 511.455 301.276 511.625C301.645 511.795 301.947 512.034 302.183 512.341C302.419 512.648 302.565 513.006 302.622 513.415H301.616C301.54 513.116 301.369 512.852 301.105 512.622C300.844 512.389 300.491 512.273 300.048 512.273C299.656 512.273 299.313 512.375 299.017 512.58C298.724 512.781 298.496 513.067 298.331 513.436C298.169 513.803 298.088 514.233 298.088 514.727C298.088 515.233 298.168 515.673 298.327 516.048C298.489 516.423 298.716 516.714 299.009 516.922C299.304 517.129 299.651 517.233 300.048 517.233C300.31 517.233 300.547 517.188 300.76 517.097C300.973 517.006 301.153 516.875 301.301 516.705C301.449 516.534 301.554 516.33 301.616 516.091H302.622C302.565 516.477 302.425 516.825 302.2 517.135C301.979 517.442 301.685 517.686 301.318 517.868C300.955 518.047 300.531 518.136 300.048 518.136ZM306.939 511.455V512.307H303.547V511.455H306.939ZM304.536 509.886H305.541V516.125C305.541 516.409 305.582 516.622 305.665 516.764C305.75 516.903 305.858 516.997 305.989 517.045C306.122 517.091 306.263 517.114 306.411 517.114C306.521 517.114 306.612 517.108 306.683 517.097C306.754 517.082 306.811 517.071 306.854 517.062L307.058 517.966C306.99 517.991 306.895 518.017 306.773 518.043C306.651 518.071 306.496 518.085 306.308 518.085C306.024 518.085 305.746 518.024 305.473 517.902C305.203 517.78 304.979 517.594 304.8 517.344C304.624 517.094 304.536 516.778 304.536 516.398V509.886Z" fill="black"/>
<rect x="445.5" y="493.5" width="101" height="51" fill="#D9A6F1" stroke="#852099"/>
<rect x="445.5" y="483.5" width="51" height="11" fill="#D9A6F1" stroke="#852099"/>
<path d="M484.83 516.455C484.778 516.023 484.571 515.688 484.207 515.449C483.844 515.21 483.398 515.091 482.869 515.091C482.483 515.091 482.145 515.153 481.855 515.278C481.568 515.403 481.344 515.575 481.182 515.794C481.023 516.013 480.943 516.261 480.943 516.54C480.943 516.773 480.999 516.973 481.109 517.141C481.223 517.305 481.368 517.443 481.544 517.554C481.72 517.662 481.905 517.751 482.098 517.822C482.291 517.891 482.469 517.946 482.631 517.989L483.517 518.227C483.744 518.287 483.997 518.369 484.276 518.474C484.557 518.58 484.825 518.723 485.081 518.905C485.339 519.084 485.553 519.314 485.72 519.595C485.888 519.876 485.972 520.222 485.972 520.631C485.972 521.102 485.848 521.528 485.601 521.909C485.357 522.29 484.999 522.592 484.527 522.817C484.058 523.041 483.489 523.153 482.818 523.153C482.193 523.153 481.652 523.053 481.195 522.851C480.74 522.649 480.382 522.368 480.121 522.007C479.862 521.646 479.716 521.227 479.682 520.75H480.773C480.801 521.08 480.912 521.352 481.105 521.568C481.301 521.781 481.548 521.94 481.847 522.045C482.148 522.148 482.472 522.199 482.818 522.199C483.222 522.199 483.584 522.134 483.905 522.003C484.226 521.869 484.48 521.685 484.668 521.449C484.855 521.21 484.949 520.932 484.949 520.614C484.949 520.324 484.868 520.088 484.706 519.906C484.544 519.724 484.331 519.577 484.067 519.463C483.803 519.349 483.517 519.25 483.21 519.165L482.136 518.858C481.455 518.662 480.915 518.382 480.517 518.018C480.119 517.655 479.92 517.179 479.92 516.591C479.92 516.102 480.053 515.676 480.317 515.312C480.584 514.946 480.942 514.662 481.391 514.46C481.842 514.256 482.347 514.153 482.903 514.153C483.466 514.153 483.966 514.254 484.403 514.456C484.841 514.655 485.188 514.928 485.443 515.274C485.702 515.621 485.838 516.014 485.852 516.455H484.83ZM490.232 523.136C489.618 523.136 489.09 522.991 488.647 522.702C488.203 522.412 487.863 522.013 487.624 521.504C487.385 520.996 487.266 520.415 487.266 519.761C487.266 519.097 487.388 518.51 487.632 518.001C487.88 517.49 488.223 517.091 488.664 516.804C489.107 516.514 489.624 516.369 490.215 516.369C490.675 516.369 491.09 516.455 491.459 516.625C491.828 516.795 492.131 517.034 492.367 517.341C492.603 517.648 492.749 518.006 492.806 518.415H491.8C491.723 518.116 491.553 517.852 491.289 517.622C491.027 517.389 490.675 517.273 490.232 517.273C489.84 517.273 489.496 517.375 489.201 517.58C488.908 517.781 488.679 518.067 488.515 518.436C488.353 518.803 488.272 519.233 488.272 519.727C488.272 520.233 488.351 520.673 488.51 521.048C488.672 521.423 488.9 521.714 489.192 521.922C489.488 522.129 489.834 522.233 490.232 522.233C490.493 522.233 490.73 522.188 490.944 522.097C491.157 522.006 491.337 521.875 491.485 521.705C491.632 521.534 491.738 521.33 491.8 521.091H492.806C492.749 521.477 492.608 521.825 492.384 522.135C492.162 522.442 491.868 522.686 491.502 522.868C491.138 523.047 490.715 523.136 490.232 523.136ZM496.935 523.136C496.344 523.136 495.826 522.996 495.38 522.714C494.936 522.433 494.59 522.04 494.34 521.534C494.093 521.028 493.969 520.437 493.969 519.761C493.969 519.08 494.093 518.484 494.34 517.976C494.59 517.467 494.936 517.072 495.38 516.791C495.826 516.51 496.344 516.369 496.935 516.369C497.526 516.369 498.043 516.51 498.486 516.791C498.932 517.072 499.279 517.467 499.526 517.976C499.776 518.484 499.901 519.08 499.901 519.761C499.901 520.437 499.776 521.028 499.526 521.534C499.279 522.04 498.932 522.433 498.486 522.714C498.043 522.996 497.526 523.136 496.935 523.136ZM496.935 522.233C497.384 522.233 497.753 522.118 498.043 521.888C498.333 521.658 498.547 521.355 498.686 520.98C498.826 520.605 498.895 520.199 498.895 519.761C498.895 519.324 498.826 518.916 498.686 518.538C498.547 518.161 498.333 517.855 498.043 517.622C497.753 517.389 497.384 517.273 496.935 517.273C496.486 517.273 496.117 517.389 495.827 517.622C495.537 517.855 495.323 518.161 495.184 518.538C495.044 518.916 494.975 519.324 494.975 519.761C494.975 520.199 495.044 520.605 495.184 520.98C495.323 521.355 495.537 521.658 495.827 521.888C496.117 522.118 496.486 522.233 496.935 522.233ZM501.436 523V516.455H502.408V517.443H502.476C502.595 517.119 502.811 516.857 503.124 516.655C503.436 516.453 503.788 516.352 504.18 516.352C504.254 516.352 504.347 516.354 504.457 516.357C504.568 516.359 504.652 516.364 504.709 516.369V517.392C504.675 517.384 504.597 517.371 504.474 517.354C504.355 517.334 504.229 517.324 504.095 517.324C503.777 517.324 503.493 517.391 503.243 517.524C502.996 517.655 502.8 517.837 502.655 518.07C502.513 518.3 502.442 518.562 502.442 518.858V523H501.436ZM508.446 523.136C507.815 523.136 507.271 522.997 506.814 522.719C506.359 522.438 506.009 522.045 505.761 521.543C505.517 521.037 505.395 520.449 505.395 519.778C505.395 519.108 505.517 518.517 505.761 518.006C506.009 517.491 506.352 517.091 506.793 516.804C507.236 516.514 507.753 516.369 508.344 516.369C508.685 516.369 509.021 516.426 509.354 516.54C509.686 516.653 509.989 516.838 510.261 517.094C510.534 517.347 510.751 517.682 510.913 518.099C511.075 518.517 511.156 519.031 511.156 519.642V520.068H506.111V519.199H510.134C510.134 518.83 510.06 518.5 509.912 518.21C509.767 517.92 509.56 517.692 509.29 517.524C509.023 517.357 508.707 517.273 508.344 517.273C507.943 517.273 507.597 517.372 507.304 517.571C507.014 517.767 506.791 518.023 506.635 518.338C506.479 518.653 506.401 518.991 506.401 519.352V519.932C506.401 520.426 506.486 520.845 506.656 521.189C506.83 521.53 507.07 521.79 507.376 521.969C507.683 522.145 508.04 522.233 508.446 522.233C508.71 522.233 508.949 522.196 509.162 522.122C509.378 522.045 509.564 521.932 509.72 521.781C509.876 521.628 509.997 521.437 510.082 521.21L511.054 521.483C510.952 521.812 510.78 522.102 510.538 522.352C510.297 522.599 509.999 522.793 509.643 522.932C509.288 523.068 508.889 523.136 508.446 523.136Z" fill="black"/>
<path d="M220 408L215 405.113V410.887L220 408ZM164 408.5H215.5V407.5H164V408.5Z" fill="black"/>
<path d="M171.009 395.443V394.875L175.582 392.545V393.455L172.074 395.145L172.102 395.088V395.23L172.074 395.173L175.582 396.864V397.773L171.009 395.443ZM177.6 395.443V394.875L182.174 392.545V393.455L178.666 395.145L178.694 395.088V395.23L178.666 395.173L182.174 396.864V397.773L177.6 395.443ZM187.388 395.77V392.545H188.226V398H187.388V397.077H187.331C187.203 397.354 187.005 397.589 186.735 397.783C186.465 397.975 186.124 398.071 185.712 398.071C185.371 398.071 185.068 397.996 184.803 397.847C184.538 397.696 184.329 397.469 184.178 397.165C184.026 396.86 183.951 396.475 183.951 396.011V392.545H184.789V395.955C184.789 396.352 184.9 396.67 185.123 396.906C185.347 397.143 185.634 397.261 185.982 397.261C186.19 397.261 186.402 397.208 186.618 397.102C186.835 396.995 187.018 396.832 187.164 396.612C187.314 396.391 187.388 396.111 187.388 395.77ZM193.625 393.767L192.872 393.98C192.825 393.855 192.755 393.733 192.662 393.614C192.573 393.494 192.449 393.394 192.293 393.316C192.137 393.238 191.937 393.199 191.693 393.199C191.359 393.199 191.081 393.276 190.858 393.43C190.638 393.581 190.528 393.774 190.528 394.009C190.528 394.217 190.604 394.381 190.756 394.502C190.907 394.623 191.144 394.723 191.466 394.804L192.275 395.003C192.763 395.121 193.126 395.302 193.366 395.546C193.605 395.788 193.724 396.099 193.724 396.48C193.724 396.793 193.634 397.072 193.454 397.318C193.277 397.564 193.028 397.759 192.709 397.901C192.389 398.043 192.017 398.114 191.594 398.114C191.037 398.114 190.577 397.993 190.212 397.751C189.848 397.51 189.617 397.157 189.52 396.693L190.315 396.494C190.391 396.788 190.534 397.008 190.745 397.155C190.958 397.302 191.236 397.375 191.579 397.375C191.97 397.375 192.28 397.292 192.51 397.126C192.742 396.958 192.858 396.757 192.858 396.523C192.858 396.333 192.791 396.175 192.659 396.047C192.526 395.917 192.323 395.82 192.048 395.756L191.139 395.543C190.64 395.424 190.273 395.241 190.038 394.992C189.806 394.741 189.69 394.428 189.69 394.051C189.69 393.743 189.777 393.471 189.949 393.234C190.125 392.998 190.363 392.812 190.663 392.677C190.966 392.542 191.309 392.474 191.693 392.474C192.233 392.474 192.657 392.593 192.964 392.83C193.274 393.066 193.495 393.379 193.625 393.767ZM197.273 398.114C196.747 398.114 196.294 397.998 195.913 397.766C195.534 397.531 195.241 397.205 195.036 396.786C194.832 396.364 194.73 395.874 194.73 395.315C194.73 394.757 194.832 394.264 195.036 393.838C195.241 393.41 195.528 393.076 195.895 392.837C196.264 392.595 196.695 392.474 197.188 392.474C197.472 392.474 197.752 392.522 198.029 392.616C198.306 392.711 198.558 392.865 198.786 393.078C199.013 393.289 199.194 393.568 199.329 393.916C199.464 394.264 199.531 394.693 199.531 395.202V395.557H195.327V394.832H198.679C198.679 394.525 198.617 394.25 198.494 394.009C198.374 393.767 198.201 393.576 197.976 393.437C197.753 393.297 197.491 393.227 197.188 393.227C196.854 393.227 196.565 393.31 196.321 393.476C196.08 393.639 195.894 393.852 195.763 394.115C195.633 394.378 195.568 394.66 195.568 394.96V395.443C195.568 395.855 195.639 396.204 195.781 396.491C195.926 396.775 196.126 396.991 196.381 397.141C196.637 397.287 196.934 397.361 197.273 397.361C197.493 397.361 197.692 397.33 197.869 397.268C198.049 397.205 198.204 397.11 198.335 396.984C198.465 396.857 198.565 396.698 198.636 396.509L199.446 396.736C199.361 397.01 199.218 397.252 199.016 397.46C198.815 397.666 198.567 397.827 198.271 397.943C197.975 398.057 197.642 398.114 197.273 398.114ZM205.621 395.443L201.048 397.773V396.864L204.556 395.173L204.528 395.23V395.088L204.556 395.145L201.048 393.455V392.545L205.621 394.875V395.443ZM212.213 395.443L207.639 397.773V396.864L211.148 395.173L211.119 395.23V395.088L211.148 395.145L207.639 393.455V392.545L212.213 394.875V395.443Z" fill="black"/>
<path d="M64 483L66.8868 478H61.1132L64 483ZM63.5 448V478.5H64.5V448H63.5Z" fill="black"/>
<path d="M220.004 513.5L215.004 510.613V516.387L220.004 513.5ZM163.996 514H215.504V513H163.996V514Z" fill="black"/>
<path d="M167.807 532.955V532.5L171.466 530.636V531.364L168.659 532.716L168.682 532.67V532.784L168.659 532.739L171.466 534.091V534.818L167.807 532.955ZM173.08 532.955V532.5L176.739 530.636V531.364L173.933 532.716L173.955 532.67V532.784L173.933 532.739L176.739 534.091V534.818L173.08 532.955ZM179.445 535.102C179.168 535.102 178.917 535.05 178.692 534.946C178.466 534.84 178.287 534.688 178.155 534.489C178.022 534.288 177.956 534.045 177.956 533.761C177.956 533.511 178.005 533.309 178.104 533.153C178.202 532.996 178.334 532.873 178.499 532.784C178.663 532.695 178.845 532.629 179.044 532.585C179.245 532.54 179.446 532.504 179.649 532.477C179.914 532.443 180.129 532.418 180.294 532.401C180.461 532.382 180.582 532.35 180.658 532.307C180.735 532.263 180.774 532.187 180.774 532.08V532.057C180.774 531.777 180.697 531.559 180.544 531.403C180.393 531.248 180.162 531.17 179.854 531.17C179.534 531.17 179.283 531.241 179.101 531.381C178.919 531.521 178.791 531.67 178.717 531.83L178.081 531.602C178.195 531.337 178.346 531.131 178.536 530.983C178.727 530.833 178.935 530.729 179.161 530.67C179.388 530.61 179.611 530.58 179.831 530.58C179.971 530.58 180.132 530.597 180.314 530.631C180.498 530.663 180.675 530.73 180.845 530.832C181.018 530.935 181.161 531.089 181.274 531.295C181.388 531.502 181.445 531.778 181.445 532.125V535H180.774V534.409H180.74C180.695 534.504 180.619 534.605 180.513 534.713C180.407 534.821 180.266 534.913 180.089 534.989C179.913 535.064 179.698 535.102 179.445 535.102ZM179.547 534.5C179.812 534.5 180.036 534.448 180.217 534.344C180.401 534.24 180.539 534.105 180.632 533.94C180.727 533.776 180.774 533.602 180.774 533.42V532.807C180.746 532.841 180.683 532.872 180.587 532.901C180.492 532.927 180.382 532.951 180.257 532.972C180.134 532.991 180.014 533.008 179.896 533.023C179.781 533.036 179.687 533.047 179.615 533.057C179.441 533.08 179.278 533.116 179.126 533.168C178.977 533.217 178.856 533.292 178.763 533.392C178.672 533.491 178.626 533.625 178.626 533.795C178.626 534.028 178.713 534.205 178.885 534.324C179.059 534.441 179.28 534.5 179.547 534.5ZM184.441 535.091C184.032 535.091 183.68 534.994 183.384 534.801C183.089 534.608 182.862 534.342 182.702 534.003C182.543 533.664 182.464 533.277 182.464 532.841C182.464 532.398 182.545 532.007 182.708 531.668C182.873 531.327 183.102 531.061 183.396 530.869C183.691 530.676 184.036 530.58 184.43 530.58C184.737 530.58 185.013 530.636 185.259 530.75C185.505 530.864 185.707 531.023 185.864 531.227C186.022 531.432 186.119 531.67 186.157 531.943H185.487C185.435 531.744 185.322 531.568 185.146 531.415C184.971 531.259 184.737 531.182 184.441 531.182C184.18 531.182 183.951 531.25 183.754 531.386C183.558 531.521 183.406 531.711 183.296 531.957C183.188 532.202 183.134 532.489 183.134 532.818C183.134 533.155 183.187 533.449 183.293 533.699C183.401 533.949 183.553 534.143 183.748 534.281C183.945 534.42 184.176 534.489 184.441 534.489C184.615 534.489 184.773 534.458 184.915 534.398C185.058 534.337 185.178 534.25 185.276 534.136C185.375 534.023 185.445 533.886 185.487 533.727H186.157C186.119 533.985 186.025 534.217 185.876 534.423C185.728 534.628 185.532 534.791 185.288 534.912C185.045 535.031 184.763 535.091 184.441 535.091ZM188.91 535.091C188.501 535.091 188.148 534.994 187.853 534.801C187.558 534.608 187.33 534.342 187.171 534.003C187.012 533.664 186.933 533.277 186.933 532.841C186.933 532.398 187.014 532.007 187.177 531.668C187.342 531.327 187.571 531.061 187.864 530.869C188.16 530.676 188.504 530.58 188.898 530.58C189.205 530.58 189.482 530.636 189.728 530.75C189.974 530.864 190.176 531.023 190.333 531.227C190.49 531.432 190.588 531.67 190.626 531.943H189.955C189.904 531.744 189.79 531.568 189.614 531.415C189.44 531.259 189.205 531.182 188.91 531.182C188.648 531.182 188.419 531.25 188.222 531.386C188.027 531.521 187.875 531.711 187.765 531.957C187.657 532.202 187.603 532.489 187.603 532.818C187.603 533.155 187.656 533.449 187.762 533.699C187.87 533.949 188.022 534.143 188.217 534.281C188.414 534.42 188.645 534.489 188.91 534.489C189.084 534.489 189.242 534.458 189.384 534.398C189.526 534.337 189.647 534.25 189.745 534.136C189.844 534.023 189.914 533.886 189.955 533.727H190.626C190.588 533.985 190.494 534.217 190.344 534.423C190.197 534.628 190.001 534.791 189.756 534.912C189.514 535.031 189.232 535.091 188.91 535.091ZM193.435 535.091C193.015 535.091 192.652 534.998 192.347 534.812C192.044 534.625 191.81 534.364 191.646 534.028C191.483 533.691 191.401 533.299 191.401 532.852C191.401 532.405 191.483 532.011 191.646 531.67C191.81 531.328 192.04 531.061 192.333 530.869C192.629 530.676 192.973 530.58 193.367 530.58C193.594 530.58 193.819 530.617 194.04 530.693C194.262 530.769 194.464 530.892 194.646 531.062C194.827 531.231 194.972 531.455 195.08 531.733C195.188 532.011 195.242 532.354 195.242 532.761V533.045H191.879V532.466H194.56C194.56 532.22 194.511 532 194.413 531.807C194.316 531.614 194.178 531.461 193.998 531.349C193.82 531.238 193.61 531.182 193.367 531.182C193.1 531.182 192.869 531.248 192.674 531.381C192.481 531.511 192.332 531.682 192.228 531.892C192.124 532.102 192.072 532.328 192.072 532.568V532.955C192.072 533.284 192.129 533.563 192.242 533.793C192.358 534.02 192.518 534.193 192.722 534.312C192.927 534.43 193.165 534.489 193.435 534.489C193.612 534.489 193.771 534.464 193.913 534.415C194.057 534.364 194.181 534.288 194.285 534.188C194.389 534.085 194.469 533.958 194.526 533.807L195.174 533.989C195.106 534.208 194.991 534.402 194.83 534.568C194.669 534.733 194.47 534.862 194.234 534.955C193.997 535.045 193.731 535.091 193.435 535.091ZM199.353 531.614L198.751 531.784C198.713 531.684 198.657 531.586 198.583 531.491C198.511 531.395 198.413 531.315 198.288 531.253C198.163 531.19 198.003 531.159 197.808 531.159C197.54 531.159 197.318 531.221 197.14 531.344C196.964 531.465 196.876 531.619 196.876 531.807C196.876 531.973 196.936 532.105 197.058 532.202C197.179 532.298 197.368 532.379 197.626 532.443L198.273 532.602C198.664 532.697 198.954 532.842 199.146 533.037C199.337 533.23 199.433 533.479 199.433 533.784C199.433 534.034 199.361 534.258 199.217 534.455C199.075 534.652 198.876 534.807 198.62 534.92C198.364 535.034 198.067 535.091 197.728 535.091C197.283 535.091 196.915 534.994 196.623 534.801C196.331 534.608 196.147 534.326 196.069 533.955L196.705 533.795C196.766 534.03 196.88 534.206 197.049 534.324C197.219 534.441 197.442 534.5 197.717 534.5C198.029 534.5 198.277 534.434 198.461 534.301C198.647 534.167 198.739 534.006 198.739 533.818C198.739 533.667 198.686 533.54 198.58 533.438C198.474 533.333 198.311 533.256 198.092 533.205L197.364 533.034C196.965 532.939 196.671 532.793 196.484 532.594C196.298 532.393 196.205 532.142 196.205 531.841C196.205 531.595 196.274 531.377 196.413 531.188C196.553 530.998 196.743 530.849 196.984 530.741C197.226 530.634 197.501 530.58 197.808 530.58C198.239 530.58 198.578 530.674 198.825 530.864C199.073 531.053 199.249 531.303 199.353 531.614ZM203.533 531.614L202.93 531.784C202.893 531.684 202.837 531.586 202.763 531.491C202.691 531.395 202.592 531.315 202.467 531.253C202.342 531.19 202.182 531.159 201.987 531.159C201.72 531.159 201.498 531.221 201.32 531.344C201.143 531.465 201.055 531.619 201.055 531.807C201.055 531.973 201.116 532.105 201.237 532.202C201.358 532.298 201.548 532.379 201.805 532.443L202.453 532.602C202.843 532.697 203.134 532.842 203.325 533.037C203.517 533.23 203.612 533.479 203.612 533.784C203.612 534.034 203.54 534.258 203.396 534.455C203.254 534.652 203.055 534.807 202.8 534.92C202.544 535.034 202.247 535.091 201.908 535.091C201.463 535.091 201.094 534.994 200.803 534.801C200.511 534.608 200.326 534.326 200.249 533.955L200.885 533.795C200.946 534.03 201.06 534.206 201.229 534.324C201.399 534.441 201.622 534.5 201.896 534.5C202.209 534.5 202.457 534.434 202.641 534.301C202.826 534.167 202.919 534.006 202.919 533.818C202.919 533.667 202.866 533.54 202.76 533.438C202.654 533.333 202.491 533.256 202.271 533.205L201.544 533.034C201.144 532.939 200.851 532.793 200.663 532.594C200.478 532.393 200.385 532.142 200.385 531.841C200.385 531.595 200.454 531.377 200.592 531.188C200.732 530.998 200.923 530.849 201.163 530.741C201.406 530.634 201.68 530.58 201.987 530.58C202.419 530.58 202.758 530.674 203.004 530.864C203.252 531.053 203.429 531.303 203.533 531.614ZM208.474 532.955L204.815 534.818V534.091L207.621 532.739L207.599 532.784V532.67L207.621 532.716L204.815 531.364V530.636L208.474 532.5V532.955ZM213.747 532.955L210.088 534.818V534.091L212.895 532.739L212.872 532.784V532.67L212.895 532.716L210.088 531.364V530.636L213.747 532.5V532.955Z" fill="black"/>
<path d="M163.996 550.5L168.996 553.387V547.613L163.996 550.5ZM220.004 550H168.496V551H220.004V550Z" fill="black"/>
<path d="M64 358.008L66.8868 353.008H61.1132L64 358.008ZM63.5 230.992L63.5 353.508H64.5V230.992H63.5Z" fill="black"/>
</g>
<defs>
<filter id="filter0_d_2_2" x="-5" y="-1" width="398" height="30" filterUnits="userSpaceOnUse" color-interpolation-filters="sRGB">
<feFlood flood-opacity="0" result="BackgroundImageFix"/>
<feColorMatrix in="SourceAlpha" type="matrix" values="0 0 0 0 0 0 0 0 0 0 0 0 0 0 0 0 0 0 127 0" result="hardAlpha"/>
<feOffset dy="4"/>
<feGaussianBlur stdDeviation="2"/>
<feComposite in2="hardAlpha" operator="out"/>
<feColorMatrix type="matrix" values="0 0 0 0 0 0 0 0 0 0 0 0 0 0 0 0 0 0 0.25 0"/>
<feBlend mode="normal" in2="BackgroundImageFix" result="effect1_dropShadow_2_2"/>
<feBlend mode="normal" in="SourceGraphic" in2="effect1_dropShadow_2_2" result="shape"/>
</filter>
<clipPath id="clip0_2_2">
<rect width="600" height="600" fill="white"/>
</clipPath>
</defs>
</svg>
